  0
SECTION
  2
HEADER
  9
$ACADVER
  1
AC1032
  9
$ACADMAINTVER
 90
       55
  9
$DWGCODEPAGE
  3
ANSI_1252
  9
$LASTSAVEDBY
  1
maria
  9
$REQUIREDVERSIONS
160
                 0
  9
$INSBASE
 10
0.0
 20
0.0
 30
0.0
  9
$EXTMIN
 10
361760.0157030997
 20
21125.29798092583
 30
0.0
  9
$EXTMAX
 10
369394.4853141788
 20
29586.60592586301
 30
0.0
  9
$LIMMIN
 10
0.0
 20
0.0
  9
$LIMMAX
 10
12.0
 20
9.0
  9
$ORTHOMODE
 70
     0
  9
$REGENMODE
 70
     1
  9
$FILLMODE
 70
     1
  9
$QTEXTMODE
 70
     0
  9
$MIRRTEXT
 70
     0
  9
$LTSCALE
 40
50.0
  9
$ATTMODE
 70
     1
  9
$TEXTSIZE
 40
0.2
  9
$TRACEWID
 40
0.05
  9
$TEXTSTYLE
  7
Standard
  9
$CLAYER
  8
Outside
  9
$CELTYPE
  6
ByLayer
  9
$CECOLOR
 62
   256
  9
$CELTSCALE
 40
1.0
  9
$DISPSILH
 70
     0
  9
$DIMSCALE
 40
1.0
  9
$DIMASZ
 40
0.18
  9
$DIMEXO
 40
0.0625
  9
$DIMDLI
 40
0.38
  9
$DIMRND
 40
0.0
  9
$DIMDLE
 40
0.0
  9
$DIMEXE
 40
0.18
  9
$DIMTP
 40
0.0
  9
$DIMTM
 40
0.0
  9
$DIMTXT
 40
0.18
  9
$DIMCEN
 40
0.09
  9
$DIMTSZ
 40
0.0
  9
$DIMTOL
 70
     0
  9
$DIMLIM
 70
     0
  9
$DIMTIH
 70
     1
  9
$DIMTOH
 70
     1
  9
$DIMSE1
 70
     0
  9
$DIMSE2
 70
     0
  9
$DIMTAD
 70
     0
  9
$DIMZIN
 70
     0
  9
$DIMBLK
  1

  9
$DIMASO
 70
     1
  9
$DIMSHO
 70
     1
  9
$DIMPOST
  1

  9
$DIMAPOST
  1

  9
$DIMALT
 70
     0
  9
$DIMALTD
 70
     2
  9
$DIMALTF
 40
25.4
  9
$DIMLFAC
 40
1.0
  9
$DIMTOFL
 70
     0
  9
$DIMTVP
 40
0.0
  9
$DIMTIX
 70
     0
  9
$DIMSOXD
 70
     0
  9
$DIMSAH
 70
     0
  9
$DIMBLK1
  1

  9
$DIMBLK2
  1

  9
$DIMSTYLE
  2
STANDARD_ACAD
  9
$DIMCLRD
 70
     0
  9
$DIMCLRE
 70
     0
  9
$DIMCLRT
 70
     0
  9
$DIMTFAC
 40
1.0
  9
$DIMGAP
 40
0.09
  9
$DIMJUST
 70
     0
  9
$DIMSD1
 70
     0
  9
$DIMSD2
 70
     0
  9
$DIMTOLJ
 70
     1
  9
$DIMTZIN
 70
     0
  9
$DIMALTZ
 70
     0
  9
$DIMALTTZ
 70
     0
  9
$DIMUPT
 70
     0
  9
$DIMDEC
 70
     4
  9
$DIMTDEC
 70
     4
  9
$DIMALTU
 70
     2
  9
$DIMALTTD
 70
     2
  9
$DIMTXSTY
  7
Standard
  9
$DIMAUNIT
 70
     0
  9
$DIMADEC
 70
     0
  9
$DIMALTRND
 40
0.0
  9
$DIMAZIN
 70
     0
  9
$DIMDSEP
 70
    46
  9
$DIMATFIT
 70
     3
  9
$DIMFRAC
 70
     0
  9
$DIMLDRBLK
  1

  9
$DIMLUNIT
 70
     2
  9
$DIMLWD
 70
    -2
  9
$DIMLWE
 70
    -2
  9
$DIMTMOVE
 70
     2
  9
$DIMFXL
 40
1.0
  9
$DIMFXLON
 70
     0
  9
$DIMJOGANG
 40
0.7853981633974483
  9
$DIMTFILL
 70
     0
  9
$DIMTFILLCLR
 70
     0
  9
$DIMARCSYM
 70
     0
  9
$DIMLTYPE
  6

  9
$DIMLTEX1
  6

  9
$DIMLTEX2
  6

  9
$DIMTXTDIRECTION
 70
     0
  9
$LUNITS
 70
     2
  9
$LUPREC
 70
     3
  9
$SKETCHINC
 40
0.1
  9
$FILLETRAD
 40
0.0
  9
$AUNITS
 70
     0
  9
$AUPREC
 70
     0
  9
$MENU
  1
.
  9
$ELEVATION
 40
0.0
  9
$PELEVATION
 40
0.0
  9
$THICKNESS
 40
0.0
  9
$LIMCHECK
 70
     0
  9
$CHAMFERA
 40
0.0
  9
$CHAMFERB
 40
0.0
  9
$CHAMFERC
 40
0.0
  9
$CHAMFERD
 40
0.0
  9
$SKPOLY
 70
     0
  9
$TDCREATE
 40
2461222.603022558
  9
$TDUCREATE
 40
2461222.519689225
  9
$TDUPDATE
 40
2461222.603041702
  9
$TDUUPDATE
 40
2461222.519708368
  9
$TDINDWG
 40
0.0000000116
  9
$TDUSRTIMER
 40
0.0000000116
  9
$USRTIMER
 70
     1
  9
$ANGBASE
 50
0.0
  9
$ANGDIR
 70
     0
  9
$PDMODE
 70
     0
  9
$PDSIZE
 40
0.0
  9
$PLINEWID
 40
0.0
  9
$SPLFRAME
 70
     0
  9
$SPLINETYPE
 70
     6
  9
$SPLINESEGS
 70
     8
  9
$HANDSEED
  5
1E2
  9
$SURFTAB1
 70
     6
  9
$SURFTAB2
 70
     6
  9
$SURFTYPE
 70
     6
  9
$SURFU
 70
     6
  9
$SURFV
 70
     6
  9
$UCSBASE
  2

  9
$UCSNAME
  2

  9
$UCSORG
 10
0.0
 20
0.0
 30
0.0
  9
$UCSXDIR
 10
1.0
 20
0.0
 30
0.0
  9
$UCSYDIR
 10
0.0
 20
1.0
 30
0.0
  9
$UCSORTHOREF
  2

  9
$UCSORTHOVIEW
 70
     0
  9
$UCSORGTOP
 10
0.0
 20
0.0
 30
0.0
  9
$UCSORGBOTTOM
 10
0.0
 20
0.0
 30
0.0
  9
$UCSORGLEFT
 10
0.0
 20
0.0
 30
0.0
  9
$UCSORGRIGHT
 10
0.0
 20
0.0
 30
0.0
  9
$UCSORGFRONT
 10
0.0
 20
0.0
 30
0.0
  9
$UCSORGBACK
 10
0.0
 20
0.0
 30
0.0
  9
$PUCSBASE
  2

  9
$PUCSNAME
  2

  9
$PUCSORG
 10
0.0
 20
0.0
 30
0.0
  9
$PUCSXDIR
 10
1.0
 20
0.0
 30
0.0
  9
$PUCSYDIR
 10
0.0
 20
1.0
 30
0.0
  9
$PUCSORTHOREF
  2

  9
$PUCSORTHOVIEW
 70
     0
  9
$PUCSORGTOP
 10
0.0
 20
0.0
 30
0.0
  9
$PUCSORGBOTTOM
 10
0.0
 20
0.0
 30
0.0
  9
$PUCSORGLEFT
 10
0.0
 20
0.0
 30
0.0
  9
$PUCSORGRIGHT
 10
0.0
 20
0.0
 30
0.0
  9
$PUCSORGFRONT
 10
0.0
 20
0.0
 30
0.0
  9
$PUCSORGBACK
 10
0.0
 20
0.0
 30
0.0
  9
$USERI1
 70
     0
  9
$USERI2
 70
     0
  9
$USERI3
 70
     0
  9
$USERI4
 70
     0
  9
$USERI5
 70
     0
  9
$USERR1
 40
0.0
  9
$USERR2
 40
0.0
  9
$USERR3
 40
0.0
  9
$USERR4
 40
0.0
  9
$USERR5
 40
0.0
  9
$WORLDVIEW
 70
     1
  9
$SHADEDGE
 70
     3
  9
$SHADEDIF
 70
    70
  9
$TILEMODE
 70
     1
  9
$MAXACTVP
 70
    64
  9
$PINSBASE
 10
0.0
 20
0.0
 30
0.0
  9
$PLIMCHECK
 70
     0
  9
$PEXTMIN
 10
1.000000000000000E+20
 20
1.000000000000000E+20
 30
1.000000000000000E+20
  9
$PEXTMAX
 10
-1.000000000000000E+20
 20
-1.000000000000000E+20
 30
-1.000000000000000E+20
  9
$PLIMMIN
 10
0.0
 20
0.0
  9
$PLIMMAX
 10
12.0
 20
9.0
  9
$UNITMODE
 70
     0
  9
$VISRETAIN
 70
     1
  9
$PLINEGEN
 70
     0
  9
$PSLTSCALE
 70
     1
  9
$TREEDEPTH
 70
  3020
  9
$CMLSTYLE
  2
Standard
  9
$CMLJUST
 70
     0
  9
$CMLSCALE
 40
1.0
  9
$PROXYGRAPHICS
 70
     1
  9
$MEASUREMENT
 70
     1
  9
$CELWEIGHT
370
    -1
  9
$ENDCAPS
280
     0
  9
$JOINSTYLE
280
     0
  9
$LWDISPLAY
290
     0
  9
$INSUNITS
 70
     4
  9
$HYPERLINKBASE
  1

  9
$STYLESHEET
  1

  9
$XEDIT
290
     1
  9
$CEPSNTYPE
380
     0
  9
$PSTYLEMODE
290
     1
  9
$FINGERPRINTGUID
  2
{b8d18e78-e124-4044-905e-4a02b250f69b}
  9
$VERSIONGUID
  2
{FAEB1C32-E019-11D5-929B-00C0DF256EC4}
  9
$EXTNAMES
290
     1
  9
$PSVPSCALE
 40
0.0
  9
$OLESTARTUP
290
     0
  9
$SORTENTS
280
   127
  9
$INDEXCTL
280
     0
  9
$HIDETEXT
280
     1
  9
$XCLIPFRAME
280
     2
  9
$HALOGAP
280
     0
  9
$OBSCOLOR
 70
   257
  9
$OBSLTYPE
280
     0
  9
$INTERSECTIONDISPLAY
280
     0
  9
$INTERSECTIONCOLOR
 70
   257
  9
$DIMASSOC
280
     2
  9
$PROJECTNAME
  1

  9
$CAMERADISPLAY
290
     0
  9
$LENSLENGTH
 40
50.0
  9
$CAMERAHEIGHT
 40
0.0
  9
$STEPSPERSEC
 40
2.0
  9
$STEPSIZE
 40
6.0
  9
$3DDWFPREC
 40
2.0
  9
$PSOLWIDTH
 40
0.25
  9
$PSOLHEIGHT
 40
4.0
  9
$LOFTANG1
 40
1.570796326794897
  9
$LOFTANG2
 40
1.570796326794897
  9
$LOFTMAG1
 40
0.0
  9
$LOFTMAG2
 40
0.0
  9
$LOFTPARAM
 70
     7
  9
$LOFTNORMALS
280
     1
  9
$LATITUDE
 40
37.795
  9
$LONGITUDE
 40
-122.394
  9
$NORTHDIRECTION
 40
0.0
  9
$TIMEZONE
 70
 -8000
  9
$LIGHTGLYPHDISPLAY
280
     1
  9
$TILEMODELIGHTSYNCH
280
     1
  9
$CMATERIAL
347
44
  9
$SOLIDHIST
280
     0
  9
$SHOWHIST
280
     1
  9
$DWFFRAME
280
     2
  9
$DGNFRAME
280
     2
  9
$REALWORLDSCALE
290
     1
  9
$INTERFERECOLOR
 62
   256
  9
$CSHADOW
280
     0
  9
$SHADOWPLANELOCATION
 40
0.0
  0
ENDSEC
  0
SECTION
  2
CLASSES
  0
CLASS
  1
ACDBDICTIONARYWDFLT
  2
AcDbDictionaryWithDefault
  3
ObjectDBX Classes
 90
        0
 91
        3
280
     0
281
     0
  0
CLASS
  1
VISUALSTYLE
  2
AcDbVisualStyle
  3
ObjectDBX Classes
 90
     4095
 91
        3
280
     0
281
     0
  0
CLASS
  1
MATERIAL
  2
AcDbMaterial
  3
ObjectDBX Classes
 90
     1153
 91
        3
280
     0
281
     0
  0
CLASS
  1
SCALE
  2
AcDbScale
  3
ObjectDBX Classes
 90
     1153
 91
        3
280
     0
281
     0
  0
CLASS
  1
TABLESTYLE
  2
AcDbTableStyle
  3
ObjectDBX Classes
 90
     4095
 91
        3
280
     0
281
     0
  0
CLASS
  1
MLEADERSTYLE
  2
AcDbMLeaderStyle
  3
ACDB_MLEADERSTYLE_CLASS
 90
     4095
 91
        3
280
     0
281
     0
  0
CLASS
  1
SUN
  2
AcDbSun
  3
SCENEOE
 90
     1153
 91
        3
280
     0
281
     0
  0
CLASS
  1
DICTIONARYVAR
  2
AcDbDictionaryVar
  3
ObjectDBX Classes
 90
        0
 91
        3
280
     0
281
     0
  0
CLASS
  1
CELLSTYLEMAP
  2
AcDbCellStyleMap
  3
ObjectDBX Classes
 90
     1152
 91
        3
280
     0
281
     0
  0
ENDSEC
  0
SECTION
  2
TABLES
  0
TABLE
  2
VPORT
  5
8
330
0
100
AcDbSymbolTable
 70
     1
  0
VPORT
  5
29
330
8
100
AcDbSymbolTableRecord
100
AcDbViewportTableRecord
  2
*Active
 70
     0
 10
0.0
 20
0.0
 11
1.0
 21
1.0
 12
10.42990654205607
 22
4.5
 13
0.0
 23
0.0
 14
0.5
 24
0.5
 15
0.5
 25
0.5
 16
0.0
 26
0.0
 36
1.0
 17
0.0
 27
0.0
 37
0.0
 40
9.0
 41
1.972972972850329
 42
50.0
 43
0.0
 44
0.0
 50
0.0
 51
0.0
 71
     0
 72
   100
 73
     1
 74
     3
 75
     0
 76
     0
 77
     0
 78
     0
281
     0
 65
     1
110
0.0
120
0.0
130
0.0
111
1.0
121
0.0
131
0.0
112
0.0
122
1.0
132
0.0
 79
     0
146
0.0
348
2F
 60
     3
 61
     5
292
     1
282
     1
141
0.0
142
0.0
 63
   250
361
5D
  0
ENDTAB
  0
TABLE
  2
LTYPE
  5
5
330
0
100
AcDbSymbolTable
 70
     1
  0
LTYPE
  5
14
330
5
100
AcDbSymbolTableRecord
100
AcDbLinetypeTableRecord
  2
ByBlock
 70
     0
  3

 72
    65
 73
     0
 40
0.0
  0
LTYPE
  5
15
330
5
100
AcDbSymbolTableRecord
100
AcDbLinetypeTableRecord
  2
ByLayer
 70
     0
  3

 72
    65
 73
     0
 40
0.0
  0
LTYPE
  5
16
330
5
100
AcDbSymbolTableRecord
100
AcDbLinetypeTableRecord
  2
Continuous
 70
     0
  3
Solid line
 72
    65
 73
     0
 40
0.0
  0
ENDTAB
  0
TABLE
  2
LAYER
  5
2
330
0
100
AcDbSymbolTable
 70
     7
  0
LAYER
  5
10
330
2
100
AcDbSymbolTableRecord
100
AcDbLayerTableRecord
  2
0
 70
     0
 62
     7
  6
Continuous
370
    -3
390
F
347
46
348
0
  0
LAYER
  5
5F
330
2
100
AcDbSymbolTableRecord
100
AcDbLayerTableRecord
  2
Outside
 70
     0
 62
     7
420
 16777215
  6
Continuous
370
    -3
390
F
347
46
348
0
  0
LAYER
  5
60
330
2
100
AcDbSymbolTableRecord
100
AcDbLayerTableRecord
  2
Inside
 70
     0
 62
     7
420
 16777215
  6
Continuous
370
    -3
390
F
347
46
348
0
  0
LAYER
  5
61
330
2
100
AcDbSymbolTableRecord
100
AcDbLayerTableRecord
  2
DIM
 70
     0
 62
     6
420
 16711935
  6
Continuous
370
    25
390
F
347
46
348
0
  0
LAYER
  5
62
330
2
100
AcDbSymbolTableRecord
100
AcDbLayerTableRecord
  2
TXT
 70
     0
 62
     7
420
 16777215
  6
Continuous
370
    -3
390
F
347
46
348
0
  0
LAYER
  5
63
330
2
100
AcDbSymbolTableRecord
100
AcDbLayerTableRecord
  2
Bohr
 70
     0
 62
     7
420
 16777215
  6
Continuous
370
    -3
390
F
347
46
348
0
  0
LAYER
  5
77
330
2
100
AcDbSymbolTableRecord
100
AcDbLayerTableRecord
  2
Defpoints
 70
     0
 62
     7
  6
Continuous
290
     0
370
    -3
390
F
347
46
348
0
  0
ENDTAB
  0
TABLE
  2
STYLE
  5
3
330
0
100
AcDbSymbolTable
 70
     2
  0
STYLE
  5
11
330
3
100
AcDbSymbolTableRecord
100
AcDbTextStyleTableRecord
  2
Standard
 70
     0
 40
0.0
 41
1.0
 50
0.0
 71
     0
 42
0.2
  3
txt
  4

  0
STYLE
  5
6E
330
3
100
AcDbSymbolTableRecord
100
AcDbTextStyleTableRecord
  2
TS1_1
 70
     0
 40
0.0
 41
1.0
 50
0.0
 71
     0
 42
0.2
  3

  4

1001
ACAD
1000
Swis721 BT
1071
      256
  0
ENDTAB
  0
TABLE
  2
VIEW
  5
6
330
0
100
AcDbSymbolTable
 70
     0
  0
ENDTAB
  0
TABLE
  2
UCS
  5
7
330
0
100
AcDbSymbolTable
 70
     0
  0
ENDTAB
  0
TABLE
  2
APPID
  5
9
330
0
100
AcDbSymbolTable
 70
     2
  0
APPID
  5
12
330
9
100
AcDbSymbolTableRecord
100
AcDbRegAppTableRecord
  2
ACAD
 70
     0
  0
APPID
  5
5E
330
9
100
AcDbSymbolTableRecord
100
AcDbRegAppTableRecord
  2
Rhino
 70
     0
  0
ENDTAB
  0
TABLE
  2
DIMSTYLE
  5
A
330
0
100
AcDbSymbolTable
 70
     2
100
AcDbDimStyleTable
  0
DIMSTYLE
105
27
330
A
100
AcDbSymbolTableRecord
100
AcDbDimStyleTableRecord
  2
STANDARD_ACAD
 70
     0
178
     0
340
11
  0
DIMSTYLE
105
75
102
{ACAD_REACTORS
330
76
330
84
330
96
330
A3
330
C4
330
D1
330
DF
330
EC
330
F9
330
107
330
114
330
121
330
12E
330
13B
330
149
330
156
330
163
330
170
330
17D
330
18A
102
}
330
A
100
AcDbSymbolTableRecord
100
AcDbDimStyleTableRecord
  2
TS1_1
 70
     0
 40
25.0
 41
3.0
 42
0.88
 44
1.0
 73
     0
 77
     1
 78
     4
 79
     1
140
3.5
141
-3.5
143
0.0394
147
0.8
174
     1
178
     0
179
     1
271
     1
279
     1
284
     1
340
6E
  0
ENDTAB
  0
TABLE
  2
BLOCK_RECORD
  5
1
330
0
100
AcDbSymbolTable
 70
    21
  0
BLOCK_RECORD
  5
1F
330
1
100
AcDbSymbolTableRecord
100
AcDbBlockTableRecord
  2
*Model_Space
340
22
 70
     0
280
     1
281
     0
  0
BLOCK_RECORD
  5
1B
330
1
100
AcDbSymbolTableRecord
100
AcDbBlockTableRecord
  2
*Paper_Space
340
0
 70
     0
280
     1
281
     0
  0
BLOCK_RECORD
  5
23
330
1
100
AcDbSymbolTableRecord
100
AcDbBlockTableRecord
  2
*Paper_Space0
340
0
 70
     0
280
     1
281
     0
  0
BLOCK_RECORD
  5
78
330
1
100
AcDbSymbolTableRecord
100
AcDbBlockTableRecord
  2
*D1
340
0
 70
     0
280
     1
281
     0
  0
BLOCK_RECORD
  5
85
330
1
100
AcDbSymbolTableRecord
100
AcDbBlockTableRecord
  2
*D2
340
0
 70
     0
280
     1
281
     0
  0
BLOCK_RECORD
  5
97
330
1
100
AcDbSymbolTableRecord
100
AcDbBlockTableRecord
  2
*D3
340
0
 70
     0
280
     1
281
     0
  0
BLOCK_RECORD
  5
A4
330
1
100
AcDbSymbolTableRecord
100
AcDbBlockTableRecord
  2
*D4
340
0
 70
     0
280
     1
281
     0
  0
BLOCK_RECORD
  5
C5
330
1
100
AcDbSymbolTableRecord
100
AcDbBlockTableRecord
  2
*D5
340
0
 70
     0
280
     1
281
     0
  0
BLOCK_RECORD
  5
D2
330
1
100
AcDbSymbolTableRecord
100
AcDbBlockTableRecord
  2
*D6
340
0
 70
     0
280
     1
281
     0
  0
BLOCK_RECORD
  5
E0
330
1
100
AcDbSymbolTableRecord
100
AcDbBlockTableRecord
  2
*D7
340
0
 70
     0
280
     1
281
     0
  0
BLOCK_RECORD
  5
ED
330
1
100
AcDbSymbolTableRecord
100
AcDbBlockTableRecord
  2
*D8
340
0
 70
     0
280
     1
281
     0
  0
BLOCK_RECORD
  5
FA
330
1
100
AcDbSymbolTableRecord
100
AcDbBlockTableRecord
  2
*D9
340
0
 70
     0
280
     1
281
     0
  0
BLOCK_RECORD
  5
108
330
1
100
AcDbSymbolTableRecord
100
AcDbBlockTableRecord
  2
*D10
340
0
 70
     0
280
     1
281
     0
  0
BLOCK_RECORD
  5
115
330
1
100
AcDbSymbolTableRecord
100
AcDbBlockTableRecord
  2
*D11
340
0
 70
     0
280
     1
281
     0
  0
BLOCK_RECORD
  5
122
330
1
100
AcDbSymbolTableRecord
100
AcDbBlockTableRecord
  2
*D12
340
0
 70
     0
280
     1
281
     0
  0
BLOCK_RECORD
  5
12F
330
1
100
AcDbSymbolTableRecord
100
AcDbBlockTableRecord
  2
*D13
340
0
 70
     0
280
     1
281
     0
  0
BLOCK_RECORD
  5
13C
330
1
100
AcDbSymbolTableRecord
100
AcDbBlockTableRecord
  2
*D14
340
0
 70
     0
280
     1
281
     0
  0
BLOCK_RECORD
  5
14A
330
1
100
AcDbSymbolTableRecord
100
AcDbBlockTableRecord
  2
*D15
340
0
 70
     0
280
     1
281
     0
  0
BLOCK_RECORD
  5
157
330
1
100
AcDbSymbolTableRecord
100
AcDbBlockTableRecord
  2
*D16
340
0
 70
     0
280
     1
281
     0
  0
BLOCK_RECORD
  5
164
330
1
100
AcDbSymbolTableRecord
100
AcDbBlockTableRecord
  2
*D17
340
0
 70
     0
280
     1
281
     0
  0
BLOCK_RECORD
  5
171
330
1
100
AcDbSymbolTableRecord
100
AcDbBlockTableRecord
  2
*D18
340
0
 70
     0
280
     1
281
     0
  0
BLOCK_RECORD
  5
17E
330
1
100
AcDbSymbolTableRecord
100
AcDbBlockTableRecord
  2
*D19
340
0
 70
     0
280
     1
281
     0
  0
BLOCK_RECORD
  5
18B
330
1
100
AcDbSymbolTableRecord
100
AcDbBlockTableRecord
  2
*D20
340
0
 70
     0
280
     1
281
     0
  0
ENDTAB
  0
ENDSEC
  0
SECTION
  2
BLOCKS
  0
BLOCK
  5
20
330
1F
100
AcDbEntity
  8
0
100
AcDbBlockBegin
  2
*Model_Space
 70
     0
 10
0.0
 20
0.0
 30
0.0
  3
*Model_Space
  1

  0
ENDBLK
  5
21
330
1F
100
AcDbEntity
  8
0
100
AcDbBlockEnd
  0
BLOCK
  5
1C
330
1B
100
AcDbEntity
 67
     1
  8
0
100
AcDbBlockBegin
  2
*Paper_Space
 70
     0
 10
0.0
 20
0.0
 30
0.0
  3
*Paper_Space
  1

  0
ENDBLK
  5
1D
330
1B
100
AcDbEntity
 67
     1
  8
0
100
AcDbBlockEnd
  0
BLOCK
  5
24
330
23
100
AcDbEntity
  8
0
100
AcDbBlockBegin
  2
*Paper_Space0
 70
     0
 10
0.0
 20
0.0
 30
0.0
  3
*Paper_Space0
  1

  0
ENDBLK
  5
25
330
23
100
AcDbEntity
  8
0
100
AcDbBlockEnd
  0
BLOCK
  5
79
330
78
100
AcDbEntity
  8
0
100
AcDbBlockBegin
  2
*D1
 70
     1
 10
0.0
 20
0.0
 30
0.0
  3
*D1
  1

  0
LINE
  5
7B
330
78
100
AcDbEntity
  8
DIM
 62
     0
370
    -2
100
AcDbLine
 10
368854.0251310867
 20
28416.06545274105
 30
0.0
 11
368752.3301310879
 21
28416.06545274105
 31
0.0
  0
LINE
  5
7C
330
78
100
AcDbEntity
  8
DIM
 62
     0
370
    -2
100
AcDbLine
 10
368854.0251310867
 20
26401.06545274105
 30
0.0
 11
368752.3301310879
 21
26401.06545274105
 31
0.0
  0
LINE
  5
7D
330
78
100
AcDbEntity
  8
DIM
 62
     0
370
    -2
100
AcDbLine
 10
368777.3301310879
 20
28341.06545274105
 30
0.0
 11
368777.3301310879
 21
26476.06545274105
 31
0.0
  0
SOLID
  5
7E
330
78
100
AcDbEntity
  8
DIM
 62
     0
100
AcDbTrace
 10
368789.8301310879
 20
28341.06545274105
 30
0.0
 11
368764.8301310879
 21
28341.06545274105
 31
0.0
 12
368777.3301310879
 22
28416.06545274105
 32
0.0
 13
368777.3301310879
 23
28416.06545274105
 33
0.0
  0
SOLID
  5
7F
330
78
100
AcDbEntity
  8
DIM
 62
     0
100
AcDbTrace
 10
368764.8301310879
 20
26476.06545274105
 30
0.0
 11
368789.8301310879
 21
26476.06545274105
 31
0.0
 12
368777.3301310879
 22
26401.06545274105
 32
0.0
 13
368777.3301310879
 23
26401.06545274105
 33
0.0
  0
MTEXT
  5
80
330
78
100
AcDbEntity
  8
DIM
 62
     0
100
AcDbMText
 10
368713.5801310879
 20
27408.56545274105
 30
0.0
 40
87.5
 41
0.0
 46
0.0
 71
     5
 72
     1
  1
\A1;2015
  7
TS1_1
 11
0.0
 21
1.0
 31
0.0
 73
     1
 44
1.0
  0
POINT
  5
81
330
78
100
AcDbEntity
  8
Defpoints
 62
     0
100
AcDbPoint
 10
368876.0251310867
 20
28416.06545274105
 30
0.0
  0
POINT
  5
82
330
78
100
AcDbEntity
  8
Defpoints
 62
     0
100
AcDbPoint
 10
368876.0251310867
 20
26401.06545274105
 30
0.0
  0
POINT
  5
83
330
78
100
AcDbEntity
  8
Defpoints
 62
     0
100
AcDbPoint
 10
368777.3301310879
 20
26401.06545274105
 30
0.0
  0
ENDBLK
  5
7A
330
78
100
AcDbEntity
  8
0
100
AcDbBlockEnd
  0
BLOCK
  5
86
330
85
100
AcDbEntity
  8
0
100
AcDbBlockBegin
  2
*D2
 70
     1
 10
0.0
 20
0.0
 30
0.0
  3
*D2
  1

  0
LINE
  5
88
330
85
100
AcDbEntity
  8
DIM
 62
     0
370
    -2
100
AcDbLine
 10
368876.0251310867
 20
28438.06545274105
 30
0.0
 11
368876.0251310867
 21
28628.38405399999
 31
0.0
  0
LINE
  5
89
330
85
100
AcDbEntity
  8
DIM
 62
     0
370
    -2
100
AcDbLine
 10
369130.0251310867
 20
28438.06545274105
 30
0.0
 11
369130.0251310867
 21
28628.38405399999
 31
0.0
  0
LINE
  5
8A
330
85
100
AcDbEntity
  8
DIM
 62
     0
370
    -2
100
AcDbLine
 10
368801.0251310867
 20
28603.38405399999
 30
0.0
 11
368726.0251310867
 21
28603.38405399999
 31
0.0
  0
LINE
  5
8B
330
85
100
AcDbEntity
  8
DIM
 62
     0
370
    -2
100
AcDbLine
 10
369205.0251310867
 20
28603.38405399999
 30
0.0
 11
369280.0251310867
 21
28603.38405399999
 31
0.0
  0
SOLID
  5
8C
330
85
100
AcDbEntity
  8
DIM
 62
     0
100
AcDbTrace
 10
368801.0251310867
 20
28590.88405399999
 30
0.0
 11
368801.0251310867
 21
28615.88405399999
 31
0.0
 12
368876.0251310867
 22
28603.38405399999
 32
0.0
 13
368876.0251310867
 23
28603.38405399999
 33
0.0
  0
SOLID
  5
8D
330
85
100
AcDbEntity
  8
DIM
 62
     0
100
AcDbTrace
 10
369205.0251310867
 20
28615.88405399999
 30
0.0
 11
369205.0251310867
 21
28590.88405399999
 31
0.0
 12
369130.0251310867
 22
28603.38405399999
 32
0.0
 13
369130.0251310867
 23
28603.38405399999
 33
0.0
  0
MTEXT
  5
8E
330
85
100
AcDbEntity
  8
DIM
 62
     0
100
AcDbMText
 10
369003.0251310867
 20
28667.13405399999
 30
0.0
 40
87.5
 41
0.0
 46
0.0
 71
     5
 72
     1
  1
\A1;254
  7
TS1_1
 73
     1
 44
1.0
  0
POINT
  5
8F
330
85
100
AcDbEntity
  8
Defpoints
 62
     0
100
AcDbPoint
 10
368876.0251310867
 20
28416.06545274105
 30
0.0
  0
POINT
  5
90
330
85
100
AcDbEntity
  8
Defpoints
 62
     0
100
AcDbPoint
 10
369130.0251310867
 20
28416.06545274105
 30
0.0
  0
POINT
  5
91
330
85
100
AcDbEntity
  8
Defpoints
 62
     0
100
AcDbPoint
 10
369130.0251310867
 20
28603.38405399999
 30
0.0
  0
ENDBLK
  5
87
330
85
100
AcDbEntity
  8
0
100
AcDbBlockEnd
  0
BLOCK
  5
98
330
97
100
AcDbEntity
  8
0
100
AcDbBlockBegin
  2
*D3
 70
     1
 10
0.0
 20
0.0
 30
0.0
  3
*D3
  1

  0
LINE
  5
9A
330
97
100
AcDbEntity
  8
DIM
 62
     0
370
    -2
100
AcDbLine
 10
367211.0251310868
 20
28416.06545274104
 30
0.0
 11
367085.0801310878
 21
28416.06545274104
 31
0.0
  0
LINE
  5
9B
330
97
100
AcDbEntity
  8
DIM
 62
     0
370
    -2
100
AcDbLine
 10
367211.0251310868
 20
26401.06545274104
 30
0.0
 11
367085.0801310878
 21
26401.06545274104
 31
0.0
  0
LINE
  5
9C
330
97
100
AcDbEntity
  8
DIM
 62
     0
370
    -2
100
AcDbLine
 10
367110.0801310878
 20
28341.06545274104
 30
0.0
 11
367110.0801310878
 21
26476.06545274104
 31
0.0
  0
SOLID
  5
9D
330
97
100
AcDbEntity
  8
DIM
 62
     0
100
AcDbTrace
 10
367122.5801310878
 20
28341.06545274104
 30
0.0
 11
367097.5801310878
 21
28341.06545274104
 31
0.0
 12
367110.0801310878
 22
28416.06545274104
 32
0.0
 13
367110.0801310878
 23
28416.06545274104
 33
0.0
  0
SOLID
  5
9E
330
97
100
AcDbEntity
  8
DIM
 62
     0
100
AcDbTrace
 10
367097.5801310878
 20
26476.06545274104
 30
0.0
 11
367122.5801310878
 21
26476.06545274104
 31
0.0
 12
367110.0801310878
 22
26401.06545274104
 32
0.0
 13
367110.0801310878
 23
26401.06545274104
 33
0.0
  0
MTEXT
  5
9F
330
97
100
AcDbEntity
  8
DIM
 62
     0
100
AcDbMText
 10
367046.3301310878
 20
27408.56545274104
 30
0.0
 40
87.5
 41
0.0
 46
0.0
 71
     5
 72
     1
  1
\A1;2015
  7
TS1_1
 11
0.0
 21
1.0
 31
0.0
 73
     1
 44
1.0
  0
POINT
  5
A0
330
97
100
AcDbEntity
  8
Defpoints
 62
     0
100
AcDbPoint
 10
367233.0251310868
 20
28416.06545274104
 30
0.0
  0
POINT
  5
A1
330
97
100
AcDbEntity
  8
Defpoints
 62
     0
100
AcDbPoint
 10
367233.0251310868
 20
26401.06545274104
 30
0.0
  0
POINT
  5
A2
330
97
100
AcDbEntity
  8
Defpoints
 62
     0
100
AcDbPoint
 10
367110.0801310878
 20
26401.06545274104
 30
0.0
  0
ENDBLK
  5
99
330
97
100
AcDbEntity
  8
0
100
AcDbBlockEnd
  0
BLOCK
  5
A5
330
A4
100
AcDbEntity
  8
0
100
AcDbBlockBegin
  2
*D4
 70
     1
 10
0.0
 20
0.0
 30
0.0
  3
*D4
  1

  0
LINE
  5
A7
330
A4
100
AcDbEntity
  8
DIM
 62
     0
370
    -2
100
AcDbLine
 10
367233.0251310868
 20
28438.06545274104
 30
0.0
 11
367233.0251310868
 21
28628.38405399998
 31
0.0
  0
LINE
  5
A8
330
A4
100
AcDbEntity
  8
DIM
 62
     0
370
    -2
100
AcDbLine
 10
368576.0251310867
 20
28438.06545274107
 30
0.0
 11
368576.0251310867
 21
28628.38405399998
 31
0.0
  0
LINE
  5
A9
330
A4
100
AcDbEntity
  8
DIM
 62
     0
370
    -2
100
AcDbLine
 10
367308.0251310868
 20
28603.38405399998
 30
0.0
 11
368501.0251310867
 21
28603.38405399998
 31
0.0
  0
SOLID
  5
AA
330
A4
100
AcDbEntity
  8
DIM
 62
     0
100
AcDbTrace
 10
367308.0251310868
 20
28615.88405399998
 30
0.0
 11
367308.0251310868
 21
28590.88405399998
 31
0.0
 12
367233.0251310868
 22
28603.38405399998
 32
0.0
 13
367233.0251310868
 23
28603.38405399998
 33
0.0
  0
SOLID
  5
AB
330
A4
100
AcDbEntity
  8
DIM
 62
     0
100
AcDbTrace
 10
368501.0251310867
 20
28590.88405399998
 30
0.0
 11
368501.0251310867
 21
28615.88405399998
 31
0.0
 12
368576.0251310867
 22
28603.38405399998
 32
0.0
 13
368576.0251310867
 23
28603.38405399998
 33
0.0
  0
MTEXT
  5
AC
330
A4
100
AcDbEntity
  8
DIM
 62
     0
100
AcDbMText
 10
367904.5251310868
 20
28667.13405399998
 30
0.0
 40
87.5
 41
0.0
 46
0.0
 71
     5
 72
     1
  1
\A1;1343
  7
TS1_1
 73
     1
 44
1.0
  0
POINT
  5
AD
330
A4
100
AcDbEntity
  8
Defpoints
 62
     0
100
AcDbPoint
 10
367233.0251310868
 20
28416.06545274104
 30
0.0
  0
POINT
  5
AE
330
A4
100
AcDbEntity
  8
Defpoints
 62
     0
100
AcDbPoint
 10
368576.0251310867
 20
28416.06545274107
 30
0.0
  0
POINT
  5
AF
330
A4
100
AcDbEntity
  8
Defpoints
 62
     0
100
AcDbPoint
 10
368576.0251310867
 20
28603.38405399998
 30
0.0
  0
ENDBLK
  5
A6
330
A4
100
AcDbEntity
  8
0
100
AcDbBlockEnd
  0
BLOCK
  5
C6
330
C5
100
AcDbEntity
  8
0
100
AcDbBlockBegin
  2
*D5
 70
     1
 10
0.0
 20
0.0
 30
0.0
  3
*D5
  1

  0
LINE
  5
C8
330
C5
100
AcDbEntity
  8
DIM
 62
     0
370
    -2
100
AcDbLine
 10
368018.7301310869
 20
23388.75545274107
 30
0.0
 11
367917.0351310886
 21
23388.75545274107
 31
0.0
  0
LINE
  5
C9
330
C5
100
AcDbEntity
  8
DIM
 62
     0
370
    -2
100
AcDbLine
 10
368018.7301310869
 20
21658.75545274107
 30
0.0
 11
367917.0351310886
 21
21658.75545274107
 31
0.0
  0
LINE
  5
CA
330
C5
100
AcDbEntity
  8
DIM
 62
     0
370
    -2
100
AcDbLine
 10
367942.0351310886
 20
23313.75545274107
 30
0.0
 11
367942.0351310886
 21
21733.75545274107
 31
0.0
  0
SOLID
  5
CB
330
C5
100
AcDbEntity
  8
DIM
 62
     0
100
AcDbTrace
 10
367954.5351310886
 20
23313.75545274107
 30
0.0
 11
367929.5351310886
 21
23313.75545274107
 31
0.0
 12
367942.0351310886
 22
23388.75545274107
 32
0.0
 13
367942.0351310886
 23
23388.75545274107
 33
0.0
  0
SOLID
  5
CC
330
C5
100
AcDbEntity
  8
DIM
 62
     0
100
AcDbTrace
 10
367929.5351310886
 20
21733.75545274107
 30
0.0
 11
367954.5351310886
 21
21733.75545274107
 31
0.0
 12
367942.0351310886
 22
21658.75545274107
 32
0.0
 13
367942.0351310886
 23
21658.75545274107
 33
0.0
  0
MTEXT
  5
CD
330
C5
100
AcDbEntity
  8
DIM
 62
     0
100
AcDbMText
 10
367878.2851310886
 20
22523.75545274107
 30
0.0
 40
87.5
 41
0.0
 46
0.0
 71
     5
 72
     1
  1
\A1;1730
  7
TS1_1
 11
0.0
 21
1.0
 31
0.0
 73
     1
 44
1.0
  0
POINT
  5
CE
330
C5
100
AcDbEntity
  8
Defpoints
 62
     0
100
AcDbPoint
 10
368040.7301310869
 20
23388.75545274107
 30
0.0
  0
POINT
  5
CF
330
C5
100
AcDbEntity
  8
Defpoints
 62
     0
100
AcDbPoint
 10
368040.7301310869
 20
21658.75545274107
 30
0.0
  0
POINT
  5
D0
330
C5
100
AcDbEntity
  8
Defpoints
 62
     0
100
AcDbPoint
 10
367942.0351310886
 20
21658.75545274107
 30
0.0
  0
ENDBLK
  5
C7
330
C5
100
AcDbEntity
  8
0
100
AcDbBlockEnd
  0
BLOCK
  5
D3
330
D2
100
AcDbEntity
  8
0
100
AcDbBlockBegin
  2
*D6
 70
     1
 10
0.0
 20
0.0
 30
0.0
  3
*D6
  1

  0
LINE
  5
D5
330
D2
100
AcDbEntity
  8
DIM
 62
     0
370
    -2
100
AcDbLine
 10
368040.7301310869
 20
23410.75545274107
 30
0.0
 11
368040.7301310869
 21
23601.07405400001
 31
0.0
  0
LINE
  5
D6
330
D2
100
AcDbEntity
  8
DIM
 62
     0
370
    -2
100
AcDbLine
 10
368210.730131087
 20
23410.75545274106
 30
0.0
 11
368210.730131087
 21
23601.07405400001
 31
0.0
  0
LINE
  5
D7
330
D2
100
AcDbEntity
  8
DIM
 62
     0
370
    -2
100
AcDbLine
 10
367965.7301310869
 20
23576.07405400001
 30
0.0
 11
367890.7301310869
 21
23576.07405400001
 31
0.0
  0
LINE
  5
D8
330
D2
100
AcDbEntity
  8
DIM
 62
     0
370
    -2
100
AcDbLine
 10
368285.730131087
 20
23576.07405400001
 30
0.0
 11
368360.730131087
 21
23576.07405400001
 31
0.0
  0
SOLID
  5
D9
330
D2
100
AcDbEntity
  8
DIM
 62
     0
100
AcDbTrace
 10
367965.7301310869
 20
23563.57405400001
 30
0.0
 11
367965.7301310869
 21
23588.57405400001
 31
0.0
 12
368040.7301310869
 22
23576.07405400001
 32
0.0
 13
368040.7301310869
 23
23576.07405400001
 33
0.0
  0
SOLID
  5
DA
330
D2
100
AcDbEntity
  8
DIM
 62
     0
100
AcDbTrace
 10
368285.730131087
 20
23588.57405400001
 30
0.0
 11
368285.730131087
 21
23563.57405400001
 31
0.0
 12
368210.730131087
 22
23576.07405400001
 32
0.0
 13
368210.730131087
 23
23576.07405400001
 33
0.0
  0
MTEXT
  5
DB
330
D2
100
AcDbEntity
  8
DIM
 62
     0
100
AcDbMText
 10
368125.730131087
 20
23639.82405400001
 30
0.0
 40
87.5
 41
0.0
 46
0.0
 71
     5
 72
     1
  1
\A1;170
  7
TS1_1
 73
     1
 44
1.0
  0
POINT
  5
DC
330
D2
100
AcDbEntity
  8
Defpoints
 62
     0
100
AcDbPoint
 10
368040.7301310869
 20
23388.75545274107
 30
0.0
  0
POINT
  5
DD
330
D2
100
AcDbEntity
  8
Defpoints
 62
     0
100
AcDbPoint
 10
368210.730131087
 20
23388.75545274106
 30
0.0
  0
POINT
  5
DE
330
D2
100
AcDbEntity
  8
Defpoints
 62
     0
100
AcDbPoint
 10
368210.730131087
 20
23576.07405400001
 30
0.0
  0
ENDBLK
  5
D4
330
D2
100
AcDbEntity
  8
0
100
AcDbBlockEnd
  0
BLOCK
  5
E1
330
E0
100
AcDbEntity
  8
0
100
AcDbBlockBegin
  2
*D7
 70
     1
 10
0.0
 20
0.0
 30
0.0
  3
*D7
  1

  0
LINE
  5
E3
330
E0
100
AcDbEntity
  8
DIM
 62
     0
370
    -2
100
AcDbLine
 10
366385.7301310869
 20
23410.75545274107
 30
0.0
 11
366385.7301310869
 21
23601.07405400001
 31
0.0
  0
LINE
  5
E4
330
E0
100
AcDbEntity
  8
DIM
 62
     0
370
    -2
100
AcDbLine
 10
367740.7301310869
 20
23410.75545274107
 30
0.0
 11
367740.7301310869
 21
23601.07405400001
 31
0.0
  0
LINE
  5
E5
330
E0
100
AcDbEntity
  8
DIM
 62
     0
370
    -2
100
AcDbLine
 10
366460.7301310869
 20
23576.07405400001
 30
0.0
 11
367665.7301310869
 21
23576.07405400001
 31
0.0
  0
SOLID
  5
E6
330
E0
100
AcDbEntity
  8
DIM
 62
     0
100
AcDbTrace
 10
366460.7301310869
 20
23588.57405400001
 30
0.0
 11
366460.7301310869
 21
23563.57405400001
 31
0.0
 12
366385.7301310869
 22
23576.07405400001
 32
0.0
 13
366385.7301310869
 23
23576.07405400001
 33
0.0
  0
SOLID
  5
E7
330
E0
100
AcDbEntity
  8
DIM
 62
     0
100
AcDbTrace
 10
367665.7301310869
 20
23563.57405400001
 30
0.0
 11
367665.7301310869
 21
23588.57405400001
 31
0.0
 12
367740.7301310869
 22
23576.07405400001
 32
0.0
 13
367740.7301310869
 23
23576.07405400001
 33
0.0
  0
MTEXT
  5
E8
330
E0
100
AcDbEntity
  8
DIM
 62
     0
100
AcDbMText
 10
367063.2301310869
 20
23639.82405400001
 30
0.0
 40
87.5
 41
0.0
 46
0.0
 71
     5
 72
     1
  1
\A1;1355
  7
TS1_1
 73
     1
 44
1.0
  0
POINT
  5
E9
330
E0
100
AcDbEntity
  8
Defpoints
 62
     0
100
AcDbPoint
 10
366385.7301310869
 20
23388.75545274107
 30
0.0
  0
POINT
  5
EA
330
E0
100
AcDbEntity
  8
Defpoints
 62
     0
100
AcDbPoint
 10
367740.7301310869
 20
23388.75545274107
 30
0.0
  0
POINT
  5
EB
330
E0
100
AcDbEntity
  8
Defpoints
 62
     0
100
AcDbPoint
 10
367740.7301310869
 20
23576.07405400001
 30
0.0
  0
ENDBLK
  5
E2
330
E0
100
AcDbEntity
  8
0
100
AcDbBlockEnd
  0
BLOCK
  5
EE
330
ED
100
AcDbEntity
  8
0
100
AcDbBlockBegin
  2
*D8
 70
     1
 10
0.0
 20
0.0
 30
0.0
  3
*D8
  1

  0
LINE
  5
F0
330
ED
100
AcDbEntity
  8
DIM
 62
     0
370
    -2
100
AcDbLine
 10
366363.7301310869
 20
23388.75545274107
 30
0.0
 11
366262.0351310888
 21
23388.75545274107
 31
0.0
  0
LINE
  5
F1
330
ED
100
AcDbEntity
  8
DIM
 62
     0
370
    -2
100
AcDbLine
 10
366363.7301310869
 20
21658.75545274107
 30
0.0
 11
366262.0351310888
 21
21658.75545274107
 31
0.0
  0
LINE
  5
F2
330
ED
100
AcDbEntity
  8
DIM
 62
     0
370
    -2
100
AcDbLine
 10
366287.0351310888
 20
23313.75545274107
 30
0.0
 11
366287.0351310888
 21
21733.75545274107
 31
0.0
  0
SOLID
  5
F3
330
ED
100
AcDbEntity
  8
DIM
 62
     0
100
AcDbTrace
 10
366299.5351310888
 20
23313.75545274107
 30
0.0
 11
366274.5351310888
 21
23313.75545274107
 31
0.0
 12
366287.0351310888
 22
23388.75545274107
 32
0.0
 13
366287.0351310888
 23
23388.75545274107
 33
0.0
  0
SOLID
  5
F4
330
ED
100
AcDbEntity
  8
DIM
 62
     0
100
AcDbTrace
 10
366274.5351310888
 20
21733.75545274107
 30
0.0
 11
366299.5351310888
 21
21733.75545274107
 31
0.0
 12
366287.0351310888
 22
21658.75545274107
 32
0.0
 13
366287.0351310888
 23
21658.75545274107
 33
0.0
  0
MTEXT
  5
F5
330
ED
100
AcDbEntity
  8
DIM
 62
     0
100
AcDbMText
 10
366223.2851310888
 20
22523.75545274107
 30
0.0
 40
87.5
 41
0.0
 46
0.0
 71
     5
 72
     1
  1
\A1;1730
  7
TS1_1
 11
0.0
 21
1.0
 31
0.0
 73
     1
 44
1.0
  0
POINT
  5
F6
330
ED
100
AcDbEntity
  8
Defpoints
 62
     0
100
AcDbPoint
 10
366385.7301310869
 20
23388.75545274107
 30
0.0
  0
POINT
  5
F7
330
ED
100
AcDbEntity
  8
Defpoints
 62
     0
100
AcDbPoint
 10
366385.7301310869
 20
21658.75545274107
 30
0.0
  0
POINT
  5
F8
330
ED
100
AcDbEntity
  8
Defpoints
 62
     0
100
AcDbPoint
 10
366287.0351310888
 20
21658.75545274107
 30
0.0
  0
ENDBLK
  5
EF
330
ED
100
AcDbEntity
  8
0
100
AcDbBlockEnd
  0
BLOCK
  5
FB
330
FA
100
AcDbEntity
  8
0
100
AcDbBlockBegin
  2
*D9
 70
     1
 10
0.0
 20
0.0
 30
0.0
  3
*D9
  1

  0
LINE
  5
FD
330
FA
100
AcDbEntity
  8
DIM
 62
     0
370
    -2
100
AcDbLine
 10
364504.4301310869
 20
23410.75545274107
 30
0.0
 11
364504.4301310869
 21
23601.07405400001
 31
0.0
  0
LINE
  5
FE
330
FA
100
AcDbEntity
  8
DIM
 62
     0
370
    -2
100
AcDbLine
 10
366085.7301310869
 20
23410.75545274107
 30
0.0
 11
366085.7301310869
 21
23601.07405400001
 31
0.0
  0
LINE
  5
FF
330
FA
100
AcDbEntity
  8
DIM
 62
     0
370
    -2
100
AcDbLine
 10
364579.4301310869
 20
23576.07405400001
 30
0.0
 11
366010.7301310869
 21
23576.07405400001
 31
0.0
  0
SOLID
  5
100
330
FA
100
AcDbEntity
  8
DIM
 62
     0
100
AcDbTrace
 10
364579.4301310869
 20
23588.57405400001
 30
0.0
 11
364579.4301310869
 21
23563.57405400001
 31
0.0
 12
364504.4301310869
 22
23576.07405400001
 32
0.0
 13
364504.4301310869
 23
23576.07405400001
 33
0.0
  0
SOLID
  5
101
330
FA
100
AcDbEntity
  8
DIM
 62
     0
100
AcDbTrace
 10
366010.7301310869
 20
23563.57405400001
 30
0.0
 11
366010.7301310869
 21
23588.57405400001
 31
0.0
 12
366085.7301310869
 22
23576.07405400001
 32
0.0
 13
366085.7301310869
 23
23576.07405400001
 33
0.0
  0
MTEXT
  5
102
330
FA
100
AcDbEntity
  8
DIM
 62
     0
100
AcDbMText
 10
365295.0801310869
 20
23639.82405400001
 30
0.0
 40
87.5
 41
0.0
 46
0.0
 71
     5
 72
     1
  1
\A1;1581.3
  7
TS1_1
 73
     1
 44
1.0
  0
POINT
  5
103
330
FA
100
AcDbEntity
  8
Defpoints
 62
     0
100
AcDbPoint
 10
364504.4301310869
 20
23388.75545274107
 30
0.0
  0
POINT
  5
104
330
FA
100
AcDbEntity
  8
Defpoints
 62
     0
100
AcDbPoint
 10
366085.7301310869
 20
23388.75545274107
 30
0.0
  0
POINT
  5
105
330
FA
100
AcDbEntity
  8
Defpoints
 62
     0
100
AcDbPoint
 10
366085.7301310869
 20
23576.07405400001
 30
0.0
  0
ENDBLK
  5
FC
330
FA
100
AcDbEntity
  8
0
100
AcDbBlockEnd
  0
BLOCK
  5
109
330
108
100
AcDbEntity
  8
0
100
AcDbBlockBegin
  2
*D10
 70
     1
 10
0.0
 20
0.0
 30
0.0
  3
*D10
  1

  0
LINE
  5
10B
330
108
100
AcDbEntity
  8
DIM
 62
     0
370
    -2
100
AcDbLine
 10
364482.4301310869
 20
23388.75545274107
 30
0.0
 11
364380.7351310888
 21
23388.75545274107
 31
0.0
  0
LINE
  5
10C
330
108
100
AcDbEntity
  8
DIM
 62
     0
370
    -2
100
AcDbLine
 10
364482.4301310869
 20
21658.75545274107
 30
0.0
 11
364380.7351310888
 21
21658.75545274107
 31
0.0
  0
LINE
  5
10D
330
108
100
AcDbEntity
  8
DIM
 62
     0
370
    -2
100
AcDbLine
 10
364405.7351310888
 20
23313.75545274107
 30
0.0
 11
364405.7351310888
 21
21733.75545274107
 31
0.0
  0
SOLID
  5
10E
330
108
100
AcDbEntity
  8
DIM
 62
     0
100
AcDbTrace
 10
364418.2351310888
 20
23313.75545274107
 30
0.0
 11
364393.2351310888
 21
23313.75545274107
 31
0.0
 12
364405.7351310888
 22
23388.75545274107
 32
0.0
 13
364405.7351310888
 23
23388.75545274107
 33
0.0
  0
SOLID
  5
10F
330
108
100
AcDbEntity
  8
DIM
 62
     0
100
AcDbTrace
 10
364393.2351310888
 20
21733.75545274107
 30
0.0
 11
364418.2351310888
 21
21733.75545274107
 31
0.0
 12
364405.7351310888
 22
21658.75545274107
 32
0.0
 13
364405.7351310888
 23
21658.75545274107
 33
0.0
  0
MTEXT
  5
110
330
108
100
AcDbEntity
  8
DIM
 62
     0
100
AcDbMText
 10
364341.9851310888
 20
22523.75545274107
 30
0.0
 40
87.5
 41
0.0
 46
0.0
 71
     5
 72
     1
  1
\A1;1730
  7
TS1_1
 11
0.0
 21
1.0
 31
0.0
 73
     1
 44
1.0
  0
POINT
  5
111
330
108
100
AcDbEntity
  8
Defpoints
 62
     0
100
AcDbPoint
 10
364504.4301310869
 20
23388.75545274107
 30
0.0
  0
POINT
  5
112
330
108
100
AcDbEntity
  8
Defpoints
 62
     0
100
AcDbPoint
 10
364504.4301310869
 20
21658.75545274107
 30
0.0
  0
POINT
  5
113
330
108
100
AcDbEntity
  8
Defpoints
 62
     0
100
AcDbPoint
 10
364405.7351310888
 20
21658.75545274107
 30
0.0
  0
ENDBLK
  5
10A
330
108
100
AcDbEntity
  8
0
100
AcDbBlockEnd
  0
BLOCK
  5
116
330
115
100
AcDbEntity
  8
0
100
AcDbBlockBegin
  2
*D11
 70
     1
 10
0.0
 20
0.0
 30
0.0
  3
*D11
  1

  0
LINE
  5
118
330
115
100
AcDbEntity
  8
DIM
 62
     0
370
    -2
100
AcDbLine
 10
362869.0301310869
 20
23410.75545274107
 30
0.0
 11
362869.0301310869
 21
23601.07405400001
 31
0.0
  0
LINE
  5
119
330
115
100
AcDbEntity
  8
DIM
 62
     0
370
    -2
100
AcDbLine
 10
364204.4301310869
 20
23410.75545274107
 30
0.0
 11
364204.4301310869
 21
23601.07405400001
 31
0.0
  0
LINE
  5
11A
330
115
100
AcDbEntity
  8
DIM
 62
     0
370
    -2
100
AcDbLine
 10
362944.0301310869
 20
23576.07405400001
 30
0.0
 11
364129.4301310869
 21
23576.07405400001
 31
0.0
  0
SOLID
  5
11B
330
115
100
AcDbEntity
  8
DIM
 62
     0
100
AcDbTrace
 10
362944.0301310869
 20
23588.57405400001
 30
0.0
 11
362944.0301310869
 21
23563.57405400001
 31
0.0
 12
362869.0301310869
 22
23576.07405400001
 32
0.0
 13
362869.0301310869
 23
23576.07405400001
 33
0.0
  0
SOLID
  5
11C
330
115
100
AcDbEntity
  8
DIM
 62
     0
100
AcDbTrace
 10
364129.4301310869
 20
23563.57405400001
 30
0.0
 11
364129.4301310869
 21
23588.57405400001
 31
0.0
 12
364204.4301310869
 22
23576.07405400001
 32
0.0
 13
364204.4301310869
 23
23576.07405400001
 33
0.0
  0
MTEXT
  5
11D
330
115
100
AcDbEntity
  8
DIM
 62
     0
100
AcDbMText
 10
363536.7301310869
 20
23639.82405400001
 30
0.0
 40
87.5
 41
0.0
 46
0.0
 71
     5
 72
     1
  1
\A1;1335.4
  7
TS1_1
 73
     1
 44
1.0
  0
POINT
  5
11E
330
115
100
AcDbEntity
  8
Defpoints
 62
     0
100
AcDbPoint
 10
362869.0301310869
 20
23388.75545274107
 30
0.0
  0
POINT
  5
11F
330
115
100
AcDbEntity
  8
Defpoints
 62
     0
100
AcDbPoint
 10
364204.4301310869
 20
23388.75545274107
 30
0.0
  0
POINT
  5
120
330
115
100
AcDbEntity
  8
Defpoints
 62
     0
100
AcDbPoint
 10
364204.4301310869
 20
23576.07405400001
 30
0.0
  0
ENDBLK
  5
117
330
115
100
AcDbEntity
  8
0
100
AcDbBlockEnd
  0
BLOCK
  5
123
330
122
100
AcDbEntity
  8
0
100
AcDbBlockBegin
  2
*D12
 70
     1
 10
0.0
 20
0.0
 30
0.0
  3
*D12
  1

  0
LINE
  5
125
330
122
100
AcDbEntity
  8
DIM
 62
     0
370
    -2
100
AcDbLine
 10
362847.0301310869
 20
23388.75545274107
 30
0.0
 11
362745.3351310886
 21
23388.75545274107
 31
0.0
  0
LINE
  5
126
330
122
100
AcDbEntity
  8
DIM
 62
     0
370
    -2
100
AcDbLine
 10
362847.0301310869
 20
21658.75545274107
 30
0.0
 11
362745.3351310886
 21
21658.75545274107
 31
0.0
  0
LINE
  5
127
330
122
100
AcDbEntity
  8
DIM
 62
     0
370
    -2
100
AcDbLine
 10
362770.3351310886
 20
23313.75545274107
 30
0.0
 11
362770.3351310886
 21
21733.75545274107
 31
0.0
  0
SOLID
  5
128
330
122
100
AcDbEntity
  8
DIM
 62
     0
100
AcDbTrace
 10
362782.8351310886
 20
23313.75545274107
 30
0.0
 11
362757.8351310886
 21
23313.75545274107
 31
0.0
 12
362770.3351310886
 22
23388.75545274107
 32
0.0
 13
362770.3351310886
 23
23388.75545274107
 33
0.0
  0
SOLID
  5
129
330
122
100
AcDbEntity
  8
DIM
 62
     0
100
AcDbTrace
 10
362757.8351310886
 20
21733.75545274107
 30
0.0
 11
362782.8351310886
 21
21733.75545274107
 31
0.0
 12
362770.3351310886
 22
21658.75545274107
 32
0.0
 13
362770.3351310886
 23
21658.75545274107
 33
0.0
  0
MTEXT
  5
12A
330
122
100
AcDbEntity
  8
DIM
 62
     0
100
AcDbMText
 10
362706.5851310886
 20
22523.75545274107
 30
0.0
 40
87.5
 41
0.0
 46
0.0
 71
     5
 72
     1
  1
\A1;1730
  7
TS1_1
 11
0.0
 21
1.0
 31
0.0
 73
     1
 44
1.0
  0
POINT
  5
12B
330
122
100
AcDbEntity
  8
Defpoints
 62
     0
100
AcDbPoint
 10
362869.0301310869
 20
23388.75545274107
 30
0.0
  0
POINT
  5
12C
330
122
100
AcDbEntity
  8
Defpoints
 62
     0
100
AcDbPoint
 10
362869.0301310869
 20
21658.75545274107
 30
0.0
  0
POINT
  5
12D
330
122
100
AcDbEntity
  8
Defpoints
 62
     0
100
AcDbPoint
 10
362770.3351310886
 20
21658.75545274107
 30
0.0
  0
ENDBLK
  5
124
330
122
100
AcDbEntity
  8
0
100
AcDbBlockEnd
  0
BLOCK
  5
130
330
12F
100
AcDbEntity
  8
0
100
AcDbBlockBegin
  2
*D13
 70
     1
 10
0.0
 20
0.0
 30
0.0
  3
*D13
  1

  0
LINE
  5
132
330
12F
100
AcDbEntity
  8
DIM
 62
     0
370
    -2
100
AcDbLine
 10
362293.0301310869
 20
23388.75545274107
 30
0.0
 11
362191.3351310884
 21
23388.75545274107
 31
0.0
  0
LINE
  5
133
330
12F
100
AcDbEntity
  8
DIM
 62
     0
370
    -2
100
AcDbLine
 10
362293.0301310869
 20
21658.75545274107
 30
0.0
 11
362191.3351310884
 21
21658.75545274107
 31
0.0
  0
LINE
  5
134
330
12F
100
AcDbEntity
  8
DIM
 62
     0
370
    -2
100
AcDbLine
 10
362216.3351310884
 20
23313.75545274107
 30
0.0
 11
362216.3351310884
 21
21733.75545274107
 31
0.0
  0
SOLID
  5
135
330
12F
100
AcDbEntity
  8
DIM
 62
     0
100
AcDbTrace
 10
362228.8351310884
 20
23313.75545274107
 30
0.0
 11
362203.8351310884
 21
23313.75545274107
 31
0.0
 12
362216.3351310884
 22
23388.75545274107
 32
0.0
 13
362216.3351310884
 23
23388.75545274107
 33
0.0
  0
SOLID
  5
136
330
12F
100
AcDbEntity
  8
DIM
 62
     0
100
AcDbTrace
 10
362203.8351310884
 20
21733.75545274107
 30
0.0
 11
362228.8351310884
 21
21733.75545274107
 31
0.0
 12
362216.3351310884
 22
21658.75545274107
 32
0.0
 13
362216.3351310884
 23
21658.75545274107
 33
0.0
  0
MTEXT
  5
137
330
12F
100
AcDbEntity
  8
DIM
 62
     0
100
AcDbMText
 10
362152.5851310884
 20
22523.75545274107
 30
0.0
 40
87.5
 41
0.0
 46
0.0
 71
     5
 72
     1
  1
\A1;1730
  7
TS1_1
 11
0.0
 21
1.0
 31
0.0
 73
     1
 44
1.0
  0
POINT
  5
138
330
12F
100
AcDbEntity
  8
Defpoints
 62
     0
100
AcDbPoint
 10
362315.0301310869
 20
23388.75545274107
 30
0.0
  0
POINT
  5
139
330
12F
100
AcDbEntity
  8
Defpoints
 62
     0
100
AcDbPoint
 10
362315.0301310869
 20
21658.75545274107
 30
0.0
  0
POINT
  5
13A
330
12F
100
AcDbEntity
  8
Defpoints
 62
     0
100
AcDbPoint
 10
362216.3351310884
 20
21658.75545274107
 30
0.0
  0
ENDBLK
  5
131
330
12F
100
AcDbEntity
  8
0
100
AcDbBlockEnd
  0
BLOCK
  5
13D
330
13C
100
AcDbEntity
  8
0
100
AcDbBlockBegin
  2
*D14
 70
     1
 10
0.0
 20
0.0
 30
0.0
  3
*D14
  1

  0
LINE
  5
13F
330
13C
100
AcDbEntity
  8
DIM
 62
     0
370
    -2
100
AcDbLine
 10
362315.0301310869
 20
23410.75545274107
 30
0.0
 11
362315.0301310869
 21
23601.07405400001
 31
0.0
  0
LINE
  5
140
330
13C
100
AcDbEntity
  8
DIM
 62
     0
370
    -2
100
AcDbLine
 10
362569.0301310869
 20
23410.75545274107
 30
0.0
 11
362569.0301310869
 21
23601.07405400001
 31
0.0
  0
LINE
  5
141
330
13C
100
AcDbEntity
  8
DIM
 62
     0
370
    -2
100
AcDbLine
 10
362240.0301310869
 20
23576.07405400001
 30
0.0
 11
362165.0301310869
 21
23576.07405400001
 31
0.0
  0
LINE
  5
142
330
13C
100
AcDbEntity
  8
DIM
 62
     0
370
    -2
100
AcDbLine
 10
362644.0301310869
 20
23576.07405400001
 30
0.0
 11
362719.0301310869
 21
23576.07405400001
 31
0.0
  0
SOLID
  5
143
330
13C
100
AcDbEntity
  8
DIM
 62
     0
100
AcDbTrace
 10
362240.0301310869
 20
23563.57405400001
 30
0.0
 11
362240.0301310869
 21
23588.57405400001
 31
0.0
 12
362315.0301310869
 22
23576.07405400001
 32
0.0
 13
362315.0301310869
 23
23576.07405400001
 33
0.0
  0
SOLID
  5
144
330
13C
100
AcDbEntity
  8
DIM
 62
     0
100
AcDbTrace
 10
362644.0301310869
 20
23588.57405400001
 30
0.0
 11
362644.0301310869
 21
23563.57405400001
 31
0.0
 12
362569.0301310869
 22
23576.07405400001
 32
0.0
 13
362569.0301310869
 23
23576.07405400001
 33
0.0
  0
MTEXT
  5
145
330
13C
100
AcDbEntity
  8
DIM
 62
     0
100
AcDbMText
 10
362442.0301310869
 20
23639.82405400001
 30
0.0
 40
87.5
 41
0.0
 46
0.0
 71
     5
 72
     1
  1
\A1;254
  7
TS1_1
 73
     1
 44
1.0
  0
POINT
  5
146
330
13C
100
AcDbEntity
  8
Defpoints
 62
     0
100
AcDbPoint
 10
362315.0301310869
 20
23388.75545274107
 30
0.0
  0
POINT
  5
147
330
13C
100
AcDbEntity
  8
Defpoints
 62
     0
100
AcDbPoint
 10
362569.0301310869
 20
23388.75545274107
 30
0.0
  0
POINT
  5
148
330
13C
100
AcDbEntity
  8
Defpoints
 62
     0
100
AcDbPoint
 10
362569.0301310869
 20
23576.07405400001
 30
0.0
  0
ENDBLK
  5
13E
330
13C
100
AcDbEntity
  8
0
100
AcDbBlockEnd
  0
BLOCK
  5
14B
330
14A
100
AcDbEntity
  8
0
100
AcDbBlockBegin
  2
*D15
 70
     1
 10
0.0
 20
0.0
 30
0.0
  3
*D15
  1

  0
LINE
  5
14D
330
14A
100
AcDbEntity
  8
DIM
 62
     0
370
    -2
100
AcDbLine
 10
365542.9001310867
 20
28416.06545274104
 30
0.0
 11
365467.7701310878
 21
28416.06545274104
 31
0.0
  0
LINE
  5
14E
330
14A
100
AcDbEntity
  8
DIM
 62
     0
370
    -2
100
AcDbLine
 10
365542.9001310867
 20
26436.06545274104
 30
0.0
 11
365467.7701310878
 21
26436.06545274104
 31
0.0
  0
LINE
  5
14F
330
14A
100
AcDbEntity
  8
DIM
 62
     0
370
    -2
100
AcDbLine
 10
365492.7701310878
 20
28341.06545274104
 30
0.0
 11
365492.7701310878
 21
26511.06545274104
 31
0.0
  0
SOLID
  5
150
330
14A
100
AcDbEntity
  8
DIM
 62
     0
100
AcDbTrace
 10
365505.2701310878
 20
28341.06545274104
 30
0.0
 11
365480.2701310878
 21
28341.06545274104
 31
0.0
 12
365492.7701310878
 22
28416.06545274104
 32
0.0
 13
365492.7701310878
 23
28416.06545274104
 33
0.0
  0
SOLID
  5
151
330
14A
100
AcDbEntity
  8
DIM
 62
     0
100
AcDbTrace
 10
365480.2701310878
 20
26511.06545274104
 30
0.0
 11
365505.2701310878
 21
26511.06545274104
 31
0.0
 12
365492.7701310878
 22
26436.06545274104
 32
0.0
 13
365492.7701310878
 23
26436.06545274104
 33
0.0
  0
MTEXT
  5
152
330
14A
100
AcDbEntity
  8
DIM
 62
     0
100
AcDbMText
 10
365429.0201310878
 20
27426.06545274104
 30
0.0
 40
87.5
 41
0.0
 46
0.0
 71
     5
 72
     1
  1
\A1;1980
  7
TS1_1
 11
0.0
 21
1.0
 31
0.0
 73
     1
 44
1.0
  0
POINT
  5
153
330
14A
100
AcDbEntity
  8
Defpoints
 62
     0
100
AcDbPoint
 10
365564.9001310867
 20
28416.06545274104
 30
0.0
  0
POINT
  5
154
330
14A
100
AcDbEntity
  8
Defpoints
 62
     0
100
AcDbPoint
 10
365564.9001310867
 20
26436.06545274104
 30
0.0
  0
POINT
  5
155
330
14A
100
AcDbEntity
  8
Defpoints
 62
     0
100
AcDbPoint
 10
365492.7701310878
 20
26436.06545274104
 30
0.0
  0
ENDBLK
  5
14C
330
14A
100
AcDbEntity
  8
0
100
AcDbBlockEnd
  0
BLOCK
  5
158
330
157
100
AcDbEntity
  8
0
100
AcDbBlockBegin
  2
*D16
 70
     1
 10
0.0
 20
0.0
 30
0.0
  3
*D16
  1

  0
LINE
  5
15A
330
157
100
AcDbEntity
  8
DIM
 62
     0
370
    -2
100
AcDbLine
 10
363933.7751310867
 20
28416.06545274106
 30
0.0
 11
363845.9601310877
 21
28416.06545274106
 31
0.0
  0
LINE
  5
15B
330
157
100
AcDbEntity
  8
DIM
 62
     0
370
    -2
100
AcDbLine
 10
363933.7751310868
 20
26436.06545274106
 30
0.0
 11
363845.9601310877
 21
26436.06545274106
 31
0.0
  0
LINE
  5
15C
330
157
100
AcDbEntity
  8
DIM
 62
     0
370
    -2
100
AcDbLine
 10
363870.9601310877
 20
28341.06545274106
 30
0.0
 11
363870.9601310877
 21
26511.06545274106
 31
0.0
  0
SOLID
  5
15D
330
157
100
AcDbEntity
  8
DIM
 62
     0
100
AcDbTrace
 10
363883.4601310877
 20
28341.06545274106
 30
0.0
 11
363858.4601310877
 21
28341.06545274106
 31
0.0
 12
363870.9601310877
 22
28416.06545274106
 32
0.0
 13
363870.9601310877
 23
28416.06545274106
 33
0.0
  0
SOLID
  5
15E
330
157
100
AcDbEntity
  8
DIM
 62
     0
100
AcDbTrace
 10
363858.4601310877
 20
26511.06545274106
 30
0.0
 11
363883.4601310877
 21
26511.06545274106
 31
0.0
 12
363870.9601310877
 22
26436.06545274106
 32
0.0
 13
363870.9601310877
 23
26436.06545274106
 33
0.0
  0
MTEXT
  5
15F
330
157
100
AcDbEntity
  8
DIM
 62
     0
100
AcDbMText
 10
363807.2101310877
 20
27426.06545274106
 30
0.0
 40
87.5
 41
0.0
 46
0.0
 71
     5
 72
     1
  1
\A1;1980
  7
TS1_1
 11
0.0
 21
1.0
 31
0.0
 73
     1
 44
1.0
  0
POINT
  5
160
330
157
100
AcDbEntity
  8
Defpoints
 62
     0
100
AcDbPoint
 10
363955.7751310867
 20
28416.06545274106
 30
0.0
  0
POINT
  5
161
330
157
100
AcDbEntity
  8
Defpoints
 62
     0
100
AcDbPoint
 10
363955.7751310868
 20
26436.06545274106
 30
0.0
  0
POINT
  5
162
330
157
100
AcDbEntity
  8
Defpoints
 62
     0
100
AcDbPoint
 10
363870.9601310877
 20
26436.06545274106
 30
0.0
  0
ENDBLK
  5
159
330
157
100
AcDbEntity
  8
0
100
AcDbBlockEnd
  0
BLOCK
  5
165
330
164
100
AcDbEntity
  8
0
100
AcDbBlockBegin
  2
*D17
 70
     1
 10
0.0
 20
0.0
 30
0.0
  3
*D17
  1

  0
LINE
  5
167
330
164
100
AcDbEntity
  8
DIM
 62
     0
370
    -2
100
AcDbLine
 10
365564.9001310867
 20
28438.06545274104
 30
0.0
 11
365564.9001310867
 21
28628.38405399998
 31
0.0
  0
LINE
  5
168
330
164
100
AcDbEntity
  8
DIM
 62
     0
370
    -2
100
AcDbLine
 10
366933.0251310868
 20
28438.06545274104
 30
0.0
 11
366933.0251310868
 21
28628.38405399998
 31
0.0
  0
LINE
  5
169
330
164
100
AcDbEntity
  8
DIM
 62
     0
370
    -2
100
AcDbLine
 10
365639.9001310867
 20
28603.38405399998
 30
0.0
 11
366858.0251310868
 21
28603.38405399998
 31
0.0
  0
SOLID
  5
16A
330
164
100
AcDbEntity
  8
DIM
 62
     0
100
AcDbTrace
 10
365639.9001310867
 20
28615.88405399998
 30
0.0
 11
365639.9001310867
 21
28590.88405399998
 31
0.0
 12
365564.9001310867
 22
28603.38405399998
 32
0.0
 13
365564.9001310867
 23
28603.38405399998
 33
0.0
  0
SOLID
  5
16B
330
164
100
AcDbEntity
  8
DIM
 62
     0
100
AcDbTrace
 10
366858.0251310868
 20
28590.88405399998
 30
0.0
 11
366858.0251310868
 21
28615.88405399998
 31
0.0
 12
366933.0251310868
 22
28603.38405399998
 32
0.0
 13
366933.0251310868
 23
28603.38405399998
 33
0.0
  0
MTEXT
  5
16C
330
164
100
AcDbEntity
  8
DIM
 62
     0
100
AcDbMText
 10
366248.9626310868
 20
28667.13405399998
 30
0.0
 40
87.5
 41
0.0
 46
0.0
 71
     5
 72
     1
  1
\A1;1368.1
  7
TS1_1
 73
     1
 44
1.0
  0
POINT
  5
16D
330
164
100
AcDbEntity
  8
Defpoints
 62
     0
100
AcDbPoint
 10
365564.9001310867
 20
28416.06545274104
 30
0.0
  0
POINT
  5
16E
330
164
100
AcDbEntity
  8
Defpoints
 62
     0
100
AcDbPoint
 10
366933.0251310868
 20
28416.06545274104
 30
0.0
  0
POINT
  5
16F
330
164
100
AcDbEntity
  8
Defpoints
 62
     0
100
AcDbPoint
 10
366933.0251310868
 20
28603.38405399998
 30
0.0
  0
ENDBLK
  5
166
330
164
100
AcDbEntity
  8
0
100
AcDbBlockEnd
  0
BLOCK
  5
172
330
171
100
AcDbEntity
  8
0
100
AcDbBlockBegin
  2
*D18
 70
     1
 10
0.0
 20
0.0
 30
0.0
  3
*D18
  1

  0
LINE
  5
174
330
171
100
AcDbEntity
  8
DIM
 62
     0
370
    -2
100
AcDbLine
 10
363955.7751310867
 20
28438.06545274106
 30
0.0
 11
363955.7751310867
 21
28628.384054
 31
0.0
  0
LINE
  5
175
330
171
100
AcDbEntity
  8
DIM
 62
     0
370
    -2
100
AcDbLine
 10
365264.9001310867
 20
28438.0654527411
 30
0.0
 11
365264.9001310867
 21
28628.384054
 31
0.0
  0
LINE
  5
176
330
171
100
AcDbEntity
  8
DIM
 62
     0
370
    -2
100
AcDbLine
 10
364030.7751310867
 20
28603.384054
 30
0.0
 11
365189.9001310867
 21
28603.384054
 31
0.0
  0
SOLID
  5
177
330
171
100
AcDbEntity
  8
DIM
 62
     0
100
AcDbTrace
 10
364030.7751310867
 20
28615.884054
 30
0.0
 11
364030.7751310867
 21
28590.884054
 31
0.0
 12
363955.7751310867
 22
28603.384054
 32
0.0
 13
363955.7751310867
 23
28603.384054
 33
0.0
  0
SOLID
  5
178
330
171
100
AcDbEntity
  8
DIM
 62
     0
100
AcDbTrace
 10
365189.9001310867
 20
28590.884054
 30
0.0
 11
365189.9001310867
 21
28615.884054
 31
0.0
 12
365264.9001310867
 22
28603.384054
 32
0.0
 13
365264.9001310867
 23
28603.384054
 33
0.0
  0
MTEXT
  5
179
330
171
100
AcDbEntity
  8
DIM
 62
     0
100
AcDbMText
 10
364610.3376310867
 20
28667.134054
 30
0.0
 40
87.5
 41
0.0
 46
0.0
 71
     5
 72
     1
  1
\A1;1309.1
  7
TS1_1
 73
     1
 44
1.0
  0
POINT
  5
17A
330
171
100
AcDbEntity
  8
Defpoints
 62
     0
100
AcDbPoint
 10
363955.7751310867
 20
28416.06545274106
 30
0.0
  0
POINT
  5
17B
330
171
100
AcDbEntity
  8
Defpoints
 62
     0
100
AcDbPoint
 10
365264.9001310867
 20
28416.0654527411
 30
0.0
  0
POINT
  5
17C
330
171
100
AcDbEntity
  8
Defpoints
 62
     0
100
AcDbPoint
 10
365264.9001310867
 20
28603.384054
 30
0.0
  0
ENDBLK
  5
173
330
171
100
AcDbEntity
  8
0
100
AcDbBlockEnd
  0
BLOCK
  5
17F
330
17E
100
AcDbEntity
  8
0
100
AcDbBlockBegin
  2
*D19
 70
     1
 10
0.0
 20
0.0
 30
0.0
  3
*D19
  1

  0
LINE
  5
181
330
17E
100
AcDbEntity
  8
DIM
 62
     0
370
    -2
100
AcDbLine
 10
362286.6777491275
 20
28438.06545274105
 30
0.0
 11
362286.6777491275
 21
28628.384054
 31
0.0
  0
LINE
  5
182
330
17E
100
AcDbEntity
  8
DIM
 62
     0
370
    -2
100
AcDbLine
 10
363655.7751310867
 20
28438.06545274109
 30
0.0
 11
363655.7751310867
 21
28628.384054
 31
0.0
  0
LINE
  5
183
330
17E
100
AcDbEntity
  8
DIM
 62
     0
370
    -2
100
AcDbLine
 10
362361.6777491275
 20
28603.384054
 30
0.0
 11
363580.7751310867
 21
28603.384054
 31
0.0
  0
SOLID
  5
184
330
17E
100
AcDbEntity
  8
DIM
 62
     0
100
AcDbTrace
 10
362361.6777491275
 20
28615.884054
 30
0.0
 11
362361.6777491275
 21
28590.884054
 31
0.0
 12
362286.6777491275
 22
28603.384054
 32
0.0
 13
362286.6777491275
 23
28603.384054
 33
0.0
  0
SOLID
  5
185
330
17E
100
AcDbEntity
  8
DIM
 62
     0
100
AcDbTrace
 10
363580.7751310867
 20
28590.884054
 30
0.0
 11
363580.7751310867
 21
28615.884054
 31
0.0
 12
363655.7751310867
 22
28603.384054
 32
0.0
 13
363655.7751310867
 23
28603.384054
 33
0.0
  0
MTEXT
  5
186
330
17E
100
AcDbEntity
  8
DIM
 62
     0
100
AcDbMText
 10
362971.2264401071
 20
28667.134054
 30
0.0
 40
87.5
 41
0.0
 46
0.0
 71
     5
 72
     1
  1
\A1;1369.1
  7
TS1_1
 73
     1
 44
1.0
  0
POINT
  5
187
330
17E
100
AcDbEntity
  8
Defpoints
 62
     0
100
AcDbPoint
 10
362286.6777491275
 20
28416.06545274105
 30
0.0
  0
POINT
  5
188
330
17E
100
AcDbEntity
  8
Defpoints
 62
     0
100
AcDbPoint
 10
363655.7751310867
 20
28416.06545274109
 30
0.0
  0
POINT
  5
189
330
17E
100
AcDbEntity
  8
Defpoints
 62
     0
100
AcDbPoint
 10
363655.7751310867
 20
28603.384054
 30
0.0
  0
ENDBLK
  5
180
330
17E
100
AcDbEntity
  8
0
100
AcDbBlockEnd
  0
BLOCK
  5
18C
330
18B
100
AcDbEntity
  8
0
100
AcDbBlockBegin
  2
*D20
 70
     1
 10
0.0
 20
0.0
 30
0.0
  3
*D20
  1

  0
LINE
  5
18E
330
18B
100
AcDbEntity
  8
DIM
 62
     0
370
    -2
100
AcDbLine
 10
362264.6777491275
 20
28416.06545274105
 30
0.0
 11
362129.3901310876
 21
28416.06545274105
 31
0.0
  0
LINE
  5
18F
330
18B
100
AcDbEntity
  8
DIM
 62
     0
370
    -2
100
AcDbLine
 10
362264.6777491275
 20
26436.06545274105
 30
0.0
 11
362129.3901310876
 21
26436.06545274105
 31
0.0
  0
LINE
  5
190
330
18B
100
AcDbEntity
  8
DIM
 62
     0
370
    -2
100
AcDbLine
 10
362154.3901310876
 20
28341.06545274105
 30
0.0
 11
362154.3901310876
 21
26511.06545274105
 31
0.0
  0
SOLID
  5
191
330
18B
100
AcDbEntity
  8
DIM
 62
     0
100
AcDbTrace
 10
362166.8901310876
 20
28341.06545274105
 30
0.0
 11
362141.8901310876
 21
28341.06545274105
 31
0.0
 12
362154.3901310876
 22
28416.06545274105
 32
0.0
 13
362154.3901310876
 23
28416.06545274105
 33
0.0
  0
SOLID
  5
192
330
18B
100
AcDbEntity
  8
DIM
 62
     0
100
AcDbTrace
 10
362141.8901310876
 20
26511.06545274105
 30
0.0
 11
362166.8901310876
 21
26511.06545274105
 31
0.0
 12
362154.3901310876
 22
26436.06545274105
 32
0.0
 13
362154.3901310876
 23
26436.06545274105
 33
0.0
  0
MTEXT
  5
193
330
18B
100
AcDbEntity
  8
DIM
 62
     0
100
AcDbMText
 10
362090.6401310876
 20
27426.06545274105
 30
0.0
 40
87.5
 41
0.0
 46
0.0
 71
     5
 72
     1
  1
\A1;1980
  7
TS1_1
 11
0.0
 21
1.0
 31
0.0
 73
     1
 44
1.0
  0
POINT
  5
194
330
18B
100
AcDbEntity
  8
Defpoints
 62
     0
100
AcDbPoint
 10
362286.6777491275
 20
28416.06545274105
 30
0.0
  0
POINT
  5
195
330
18B
100
AcDbEntity
  8
Defpoints
 62
     0
100
AcDbPoint
 10
362286.6777491275
 20
26436.06545274105
 30
0.0
  0
POINT
  5
196
330
18B
100
AcDbEntity
  8
Defpoints
 62
     0
100
AcDbPoint
 10
362154.3901310876
 20
26436.06545274105
 30
0.0
  0
ENDBLK
  5
18D
330
18B
100
AcDbEntity
  8
0
100
AcDbBlockEnd
  0
ENDSEC
  0
SECTION
  2
ENTITIES
  0
CIRCLE
  5
64
330
1F
100
AcDbEntity
  8
Bohr
100
AcDbCircle
 10
365740.3393503607
 20
22539.81581755448
 30
0.0
 40
1.5
  0
CIRCLE
  5
65
330
1F
100
AcDbEntity
  8
Bohr
100
AcDbCircle
 10
365392.8393503607
 20
22539.81581755448
 30
0.0
 40
1.5
  0
CIRCLE
  5
66
330
1F
100
AcDbEntity
  8
Bohr
100
AcDbCircle
 10
365740.3393503607
 20
22597.31581755448
 30
0.0
 40
1.5
  0
CIRCLE
  5
67
330
1F
100
AcDbEntity
  8
Bohr
100
AcDbCircle
 10
365392.8393503607
 20
22597.31581755448
 30
0.0
 40
1.5
  0
LINE
  5
68
330
1F
100
AcDbEntity
  8
TXT
 62
     0
100
AcDbLine
 10
368100.2951310867
 20
21363.40405400004
 30
0.0
 11
368100.2951310867
 21
21791.20405400004
 31
0.0
  0
LINE
  5
69
330
1F
100
AcDbEntity
  8
TXT
 62
     0
100
AcDbLine
 10
365613.2151310867
 20
21201.53405400004
 30
0.0
 11
368100.2951310867
 21
21363.40405400004
 31
0.0
  0
LINE
  5
6A
330
1F
100
AcDbEntity
  8
TXT
 62
     0
100
AcDbLine
 10
365524.5351310867
 20
21259.35405400004
 30
0.0
 11
366785.4251310868
 21
21760.37405400004
 31
0.0
  0
LINE
  5
6B
330
1F
100
AcDbEntity
  8
TXT
 62
     0
100
AcDbLine
 10
364784.1951310867
 20
21236.22405400004
 30
0.0
 11
364919.1551310867
 21
21841.31405400004
 31
0.0
  0
LINE
  5
6C
330
1F
100
AcDbEntity
  8
TXT
 62
     0
100
AcDbLine
 10
362455.2151310867
 20
21324.86405400004
 30
0.0
 11
364194.2351310867
 21
21155.29405400004
 31
0.0
  0
LINE
  5
6D
330
1F
100
AcDbEntity
  8
TXT
 62
     0
100
AcDbLine
 10
362405.0851310867
 20
21748.81405400004
 30
0.0
 11
362455.2151310867
 21
21324.86405400004
 31
0.0
  0
MTEXT
  5
6F
330
1F
100
AcDbEntity
  8
TXT
 62
     0
100
AcDbMText
 10
364337.5907030996
 20
21125.29798092583
 30
0.0
 40
71.1896
 41
2365.5066
 46
30.02343999999999
 71
     7
 72
     1
  1
1 Platte mit 4100x1854x6
  7
TS1_1
 73
     1
 44
1.0
  0
LINE
  5
70
330
1F
100
AcDbEntity
  8
TXT
 62
     0
100
AcDbLine
 10
362946.5551310867
 20
21519.61405400004
 30
0.0
 11
363129.7551310867
 21
22013.53405400004
 31
0.0
  0
MTEXT
  5
71
330
1F
100
AcDbEntity
  8
TXT
 62
     0
100
AcDbMText
 10
362745.0907030996
 20
21452.88798092583
 30
0.0
 40
71.1896
 41
2475.3862
 46
30.02343999999999
 71
     7
 72
     1
  1
4 Platten mit 2800x1854x6
  7
TS1_1
 73
     1
 44
1.0
  0
MTEXT
  5
72
330
1F
100
AcDbEntity
  8
TXT
 62
     0
100
AcDbMText
 10
361760.0157030997
 20
23978.34868029633
 30
0.0
 40
71.1896
 41
3207.401
 46
30.02343999999999
 71
     7
 72
     1
  1
1 Platte mit 4100x1854x6 bestellen
  7
TS1_1
 73
     1
 44
1.0
  0
MTEXT
  5
73
330
1F
100
AcDbEntity
  8
TXT
 62
     0
100
AcDbMText
 10
368895.9310120049
 20
28131.05532169353
 30
0.0
 40
85.4134
 41
498.554302173913
 46
36.02217304347825
 71
     7
 72
     1
  1
t=8
  7
TS1_1
 73
     1
 44
1.0
  0
MTEXT
  5
74
330
1F
100
AcDbEntity
  8
TXT
 62
     0
100
AcDbMText
 10
368895.9310120049
 20
28301.89532169353
 30
0.0
 40
85.4134
 41
486.4850173913043
 46
34.16535999999999
 71
     7
 72
     1
  1
1 x
  7
TS1_1
 73
     1
 44
1.0
  0
DIMENSION
  5
76
330
1F
100
AcDbEntity
  8
DIM
100
AcDbDimension
280
     0
  2
*D1
 10
368777.3301310879
 20
26401.06545274105
 30
0.0
 11
368713.5801310879
 21
27408.56545274105
 31
0.0
 70
    32
  1
2015
 71
     5
 42
2015.0
 73
     0
 74
     0
 75
     0
  3
TS1_1
100
AcDbAlignedDimension
 13
368876.0251310867
 23
28416.06545274105
 33
0.0
 14
368876.0251310867
 24
26401.06545274105
 34
0.0
 50
90.0
100
AcDbRotatedDimension
1001
ACAD
1000
DSTYLE
1002
{
1070
    73
1070
     0
1070
    74
1070
     0
1070
   341
1005
0
1070
   173
1070
     0
1070
   342
1005
0
1070
   143
1040
1.0
1070
   284
1070
     4
1070
    78
1070
     8
1070
    40
1040
25.0
1070
   144
1040
1.0
1002
}
  0
DIMENSION
  5
84
330
1F
100
AcDbEntity
  8
DIM
100
AcDbDimension
280
     0
  2
*D2
 10
369130.0251310867
 20
28603.38405399999
 30
0.0
 11
369003.0251310867
 21
28667.13405399999
 31
0.0
 70
    32
  1
254
 71
     5
 42
254.0
 73
     0
 74
     0
 75
     0
  3
TS1_1
100
AcDbAlignedDimension
 13
368876.0251310867
 23
28416.06545274105
 33
0.0
 14
369130.0251310867
 24
28416.06545274105
 34
0.0
100
AcDbRotatedDimension
1001
ACAD
1000
DSTYLE
1002
{
1070
    73
1070
     0
1070
    74
1070
     0
1070
   341
1005
0
1070
   173
1070
     0
1070
   342
1005
0
1070
   143
1040
1.0
1070
   284
1070
     4
1070
    78
1070
     8
1070
    40
1040
25.0
1070
   144
1040
1.0
1002
}
  0
MTEXT
  5
92
330
1F
100
AcDbEntity
  8
TXT
 62
     0
100
AcDbMText
 10
361760.0157030997
 20
24116.15868029633
 30
0.0
 40
71.1896
 41
3317.2806
 46
30.02343999999999
 71
     7
 72
     1
  1
4 Platten mit 2800x1854x6 bestellen
  7
TS1_1
 73
     1
 44
1.0
  0
MTEXT
  5
93
330
1F
100
AcDbEntity
  8
TXT
 62
     0
100
AcDbMText
 10
361760.0157030997
 20
29104.997485863
 30
0.0
 40
71.1896
 41
3317.2806
 46
30.02343999999999
 71
     7
 72
     1
  1
4 Platten mit 4100x1854x8 bestellen
  7
TS1_1
 73
     1
 44
1.0
  0
MTEXT
  5
94
330
1F
100
AcDbEntity
  8
TXT
 62
     0
100
AcDbMText
 10
367252.931012005
 20
28131.05532169352
 30
0.0
 40
85.4134
 41
498.554302173913
 46
36.02217304347825
 71
     7
 72
     1
  1
t=8
  7
TS1_1
 73
     1
 44
1.0
  0
MTEXT
  5
95
330
1F
100
AcDbEntity
  8
TXT
 62
     0
100
AcDbMText
 10
367253.9686300456
 20
28301.89532169352
 30
0.0
 40
85.4134
 41
486.4850173913043
 46
36.02217304347825
 71
     7
 72
     1
  1
3 x
  7
TS1_1
 73
     1
 44
1.0
  0
DIMENSION
  5
96
330
1F
100
AcDbEntity
  8
DIM
100
AcDbDimension
280
     0
  2
*D3
 10
367110.0801310878
 20
26401.06545274104
 30
0.0
 11
367046.3301310878
 21
27408.56545274104
 31
0.0
 70
    32
  1
2015
 71
     5
 42
2015.0
 73
     0
 74
     0
 75
     0
  3
TS1_1
100
AcDbAlignedDimension
 13
367233.0251310868
 23
28416.06545274104
 33
0.0
 14
367233.0251310868
 24
26401.06545274104
 34
0.0
 50
90.0
100
AcDbRotatedDimension
1001
ACAD
1000
DSTYLE
1002
{
1070
    73
1070
     0
1070
    74
1070
     0
1070
   341
1005
0
1070
   173
1070
     0
1070
   342
1005
0
1070
   143
1040
1.0
1070
   284
1070
     4
1070
    78
1070
     8
1070
    40
1040
25.0
1070
   144
1040
1.0
1002
}
  0
DIMENSION
  5
A3
330
1F
100
AcDbEntity
  8
DIM
100
AcDbDimension
280
     0
  2
*D4
 10
368576.0251310867
 20
28603.38405399998
 30
0.0
 11
367904.5251310868
 21
28667.13405399998
 31
0.0
 70
    32
  1
1343
 71
     5
 42
1342.999999999884
 73
     0
 74
     0
 75
     0
  3
TS1_1
100
AcDbAlignedDimension
 13
367233.0251310868
 23
28416.06545274104
 33
0.0
 14
368576.0251310867
 24
28416.06545274107
 34
0.0
100
AcDbRotatedDimension
1001
ACAD
1000
DSTYLE
1002
{
1070
    73
1070
     0
1070
    74
1070
     0
1070
   341
1005
0
1070
   173
1070
     0
1070
   342
1005
0
1070
   143
1040
1.0
1070
   284
1070
     4
1070
    78
1070
     8
1070
    40
1040
25.0
1070
   144
1040
1.0
1002
}
  0
MTEXT
  5
B0
330
1F
100
AcDbEntity
  8
TXT
 62
     0
100
AcDbMText
 10
361760.0157030997
 20
24423.23435119014
 30
0.0
 40
71.1896
 41
2679.6694
 46
50.52913999999998
 71
     7
 72
     1
  1
beidseitig gefast, geschnitten
  7
TS1_1
 73
     1
 44
1.0
  0
MTEXT
  5
B1
330
1F
100
AcDbEntity
  8
TXT
 62
     0
100
AcDbMText
 10
361760.0157030997
 20
24548.39868029634
 30
0.0
 40
71.1896
 41
4218.7576
 46
49.36843999999999
 71
     7
 72
     1
  1
Max Platten: 0762NT Neutralgrau Mittel - 6mm
  7
TS1_1
 73
     1
 44
1.0
  0
MTEXT
  5
B2
330
1F
100
AcDbEntity
  8
TXT
 62
     0
100
AcDbMText
 10
361760.0157030997
 20
29412.07315675681
 30
0.0
 40
71.1896
 41
2679.6694
 46
50.52913999999998
 71
     7
 72
     1
  1
beidseitig gefast, geschnitten
  7
TS1_1
 73
     1
 44
1.0
  0
MTEXT
  5
B3
330
1F
100
AcDbEntity
  8
TXT
 62
     0
100
AcDbMText
 10
361760.0157030997
 20
29537.23748586301
 30
0.0
 40
71.1896
 41
4218.7576
 46
49.36843999999999
 71
     7
 72
     1
  1
Max Platten: 0762NT Neutralgrau Mittel - 8mm
  7
TS1_1
 73
     1
 44
1.0
  0
MTEXT
  5
B4
330
1F
100
AcDbEntity
  8
TXT
 62
     0
100
AcDbMText
 10
368060.6360120051
 20
23103.74532169355
 30
0.0
 40
85.4134
 41
497.6258956521739
 46
36.02217304347825
 71
     7
 72
     1
  1
t=6
  7
TS1_1
 73
     1
 44
1.0
  0
MTEXT
  5
B5
330
1F
100
AcDbEntity
  8
TXT
 62
     0
100
AcDbMText
 10
366405.6360120051
 20
23103.74532169397
 30
0.0
 40
85.4134
 41
497.6258956521739
 46
36.02217304347825
 71
     7
 72
     1
  1
t=6
  7
TS1_1
 73
     1
 44
1.0
  0
MTEXT
  5
B6
330
1F
100
AcDbEntity
  8
TXT
 62
     0
100
AcDbMText
 10
364524.3360120051
 20
23103.74532169385
 30
0.0
 40
85.4134
 41
497.6258956521739
 46
36.02217304347825
 71
     7
 72
     1
  1
t=6
  7
TS1_1
 73
     1
 44
1.0
  0
MTEXT
  5
B7
330
1F
100
AcDbEntity
  8
TXT
 62
     0
100
AcDbMText
 10
362888.9360120051
 20
23103.74532169373
 30
0.0
 40
85.4134
 41
497.6258956521739
 46
36.02217304347825
 71
     7
 72
     1
  1
t=6
  7
TS1_1
 73
     1
 44
1.0
  0
MTEXT
  5
B8
330
1F
100
AcDbEntity
  8
TXT
 62
     0
100
AcDbMText
 10
362334.9360120051
 20
23103.74532169355
 30
0.0
 40
85.4134
 41
497.6258956521739
 46
36.02217304347825
 71
     7
 72
     1
  1
t=6
  7
TS1_1
 73
     1
 44
1.0
  0
MTEXT
  5
B9
330
1F
100
AcDbEntity
  8
TXT
 62
     0
100
AcDbMText
 10
365584.8060120049
 20
28131.05532169352
 30
0.0
 40
85.4134
 41
498.554302173913
 46
36.02217304347825
 71
     7
 72
     1
  1
t=8
  7
TS1_1
 73
     1
 44
1.0
  0
MTEXT
  5
BA
330
1F
100
AcDbEntity
  8
TXT
 62
     0
100
AcDbMText
 10
363975.6810120049
 20
28131.05532169359
 30
0.0
 40
85.4134
 41
498.554302173913
 46
36.02217304347825
 71
     7
 72
     1
  1
t=8
  7
TS1_1
 73
     1
 44
1.0
  0
MTEXT
  5
BB
330
1F
100
AcDbEntity
  8
TXT
 62
     0
100
AcDbMText
 10
362306.5836300457
 20
28131.05532169354
 30
0.0
 40
85.4134
 41
498.554302173913
 46
36.02217304347825
 71
     7
 72
     1
  1
t=8
  7
TS1_1
 73
     1
 44
1.0
  0
MTEXT
  5
BC
330
1F
100
AcDbEntity
  8
TXT
 62
     0
100
AcDbMText
 10
368060.6360120051
 20
23274.58532169355
 30
0.0
 40
85.4134
 41
486.4850173913043
 46
34.16535999999999
 71
     7
 72
     1
  1
1 x
  7
TS1_1
 73
     1
 44
1.0
  0
MTEXT
  5
BD
330
1F
100
AcDbEntity
  8
TXT
 62
     0
100
AcDbMText
 10
366405.6360120051
 20
23274.58532169355
 30
0.0
 40
85.4134
 41
486.4850173913043
 46
34.16535999999999
 71
     7
 72
     1
  1
1 x
  7
TS1_1
 73
     1
 44
1.0
  0
MTEXT
  5
BE
330
1F
100
AcDbEntity
  8
TXT
 62
     0
100
AcDbMText
 10
364524.3360120051
 20
23274.58532169356
 30
0.0
 40
85.4134
 41
486.4850173913043
 46
34.16535999999999
 71
     7
 72
     1
  1
1 x
  7
TS1_1
 73
     1
 44
1.0
  0
MTEXT
  5
BF
330
1F
100
AcDbEntity
  8
TXT
 62
     0
100
AcDbMText
 10
362888.9360120051
 20
23274.58532169355
 30
0.0
 40
85.4134
 41
486.4850173913043
 46
36.02217304347825
 71
     7
 72
     1
  1
8 x
  7
TS1_1
 73
     1
 44
1.0
  0
MTEXT
  5
C0
330
1F
100
AcDbEntity
  8
TXT
 62
     0
100
AcDbMText
 10
362334.9360120051
 20
23274.58532169355
 30
0.0
 40
85.4134
 41
486.4850173913043
 46
34.16535999999999
 71
     7
 72
     1
  1
1 x
  7
TS1_1
 73
     1
 44
1.0
  0
MTEXT
  5
C1
330
1F
100
AcDbEntity
  8
TXT
 62
     0
100
AcDbMText
 10
365584.8060120049
 20
28301.89532169352
 30
0.0
 40
85.4134
 41
486.4850173913043
 46
34.16535999999999
 71
     7
 72
     1
  1
1 x
  7
TS1_1
 73
     1
 44
1.0
  0
MTEXT
  5
C2
330
1F
100
AcDbEntity
  8
TXT
 62
     0
100
AcDbMText
 10
363975.6810120049
 20
28301.89532169355
 30
0.0
 40
85.4134
 41
486.4850173913043
 46
34.16535999999999
 71
     7
 72
     1
  1
2 x
  7
TS1_1
 73
     1
 44
1.0
  0
MTEXT
  5
C3
330
1F
100
AcDbEntity
  8
TXT
 62
     0
100
AcDbMText
 10
362306.5836300457
 20
28301.89532169354
 30
0.0
 40
85.4134
 41
486.4850173913043
 46
34.16535999999999
 71
     7
 72
     1
  1
1 x
  7
TS1_1
 73
     1
 44
1.0
  0
DIMENSION
  5
C4
330
1F
100
AcDbEntity
  8
DIM
100
AcDbDimension
280
     0
  2
*D5
 10
367942.0351310886
 20
21658.75545274107
 30
0.0
 11
367878.2851310886
 21
22523.75545274107
 31
0.0
 70
    32
  1
1730
 71
     5
 42
1730.0
 73
     0
 74
     0
 75
     0
  3
TS1_1
100
AcDbAlignedDimension
 13
368040.7301310869
 23
23388.75545274107
 33
0.0
 14
368040.7301310869
 24
21658.75545274107
 34
0.0
 50
90.0
100
AcDbRotatedDimension
1001
ACAD
1000
DSTYLE
1002
{
1070
    73
1070
     0
1070
    74
1070
     0
1070
   341
1005
0
1070
   173
1070
     0
1070
   342
1005
0
1070
   143
1040
1.0
1070
   284
1070
     4
1070
    78
1070
     8
1070
    40
1040
25.0
1070
   144
1040
1.0
1002
}
  0
DIMENSION
  5
D1
330
1F
100
AcDbEntity
  8
DIM
100
AcDbDimension
280
     0
  2
*D6
 10
368210.730131087
 20
23576.07405400001
 30
0.0
 11
368125.730131087
 21
23639.82405400001
 31
0.0
 70
    32
  1
170
 71
     5
 42
170.0000000001164
 73
     0
 74
     0
 75
     0
  3
TS1_1
100
AcDbAlignedDimension
 13
368040.7301310869
 23
23388.75545274107
 33
0.0
 14
368210.730131087
 24
23388.75545274106
 34
0.0
100
AcDbRotatedDimension
1001
ACAD
1000
DSTYLE
1002
{
1070
    73
1070
     0
1070
    74
1070
     0
1070
   341
1005
0
1070
   173
1070
     0
1070
   342
1005
0
1070
   143
1040
1.0
1070
   284
1070
     4
1070
    78
1070
     8
1070
    40
1040
25.0
1070
   144
1040
1.0
1002
}
  0
DIMENSION
  5
DF
330
1F
100
AcDbEntity
  8
DIM
100
AcDbDimension
280
     0
  2
*D7
 10
367740.7301310869
 20
23576.07405400001
 30
0.0
 11
367063.2301310869
 21
23639.82405400001
 31
0.0
 70
    32
  1
1355
 71
     5
 42
1355.0
 73
     0
 74
     0
 75
     0
  3
TS1_1
100
AcDbAlignedDimension
 13
366385.7301310869
 23
23388.75545274107
 33
0.0
 14
367740.7301310869
 24
23388.75545274107
 34
0.0
100
AcDbRotatedDimension
1001
ACAD
1000
DSTYLE
1002
{
1070
    73
1070
     0
1070
    74
1070
     0
1070
   341
1005
0
1070
   173
1070
     0
1070
   342
1005
0
1070
   143
1040
1.0
1070
   284
1070
     4
1070
    78
1070
     8
1070
    40
1040
25.0
1070
   144
1040
1.0
1002
}
  0
DIMENSION
  5
EC
330
1F
100
AcDbEntity
  8
DIM
100
AcDbDimension
280
     0
  2
*D8
 10
366287.0351310888
 20
21658.75545274107
 30
0.0
 11
366223.2851310888
 21
22523.75545274107
 31
0.0
 70
    32
  1
1730
 71
     5
 42
1730.0
 73
     0
 74
     0
 75
     0
  3
TS1_1
100
AcDbAlignedDimension
 13
366385.7301310869
 23
23388.75545274107
 33
0.0
 14
366385.7301310869
 24
21658.75545274107
 34
0.0
 50
90.0
100
AcDbRotatedDimension
1001
ACAD
1000
DSTYLE
1002
{
1070
    73
1070
     0
1070
    74
1070
     0
1070
   341
1005
0
1070
   173
1070
     0
1070
   342
1005
0
1070
   143
1040
1.0
1070
   284
1070
     4
1070
    78
1070
     8
1070
    40
1040
25.0
1070
   144
1040
1.0
1002
}
  0
DIMENSION
  5
F9
330
1F
100
AcDbEntity
  8
DIM
100
AcDbDimension
280
     0
  2
*D9
 10
366085.7301310869
 20
23576.07405400001
 30
0.0
 11
365295.0801310869
 21
23639.82405400001
 31
0.0
 70
    32
  1
1581.3
 71
     5
 42
1581.299999999988
 73
     0
 74
     0
 75
     0
  3
TS1_1
100
AcDbAlignedDimension
 13
364504.4301310869
 23
23388.75545274107
 33
0.0
 14
366085.7301310869
 24
23388.75545274107
 34
0.0
100
AcDbRotatedDimension
1001
ACAD
1000
DSTYLE
1002
{
1070
    73
1070
     0
1070
    74
1070
     0
1070
   341
1005
0
1070
   173
1070
     0
1070
   342
1005
0
1070
   143
1040
1.0
1070
   284
1070
     4
1070
    78
1070
     8
1070
    40
1040
25.0
1070
   144
1040
1.0
1002
}
  0
LINE
  5
106
330
1F
100
AcDbEntity
  8
Outside
100
AcDbLine
 10
366085.730131087
 20
21658.75545274107
 30
0.0
 11
366085.7301310869
 21
23388.75545274107
 31
0.0
  0
DIMENSION
  5
107
330
1F
100
AcDbEntity
  8
DIM
100
AcDbDimension
280
     0
  2
*D10
 10
364405.7351310888
 20
21658.75545274107
 30
0.0
 11
364341.9851310888
 21
22523.75545274107
 31
0.0
 70
    32
  1
1730
 71
     5
 42
1730.0
 73
     0
 74
     0
 75
     0
  3
TS1_1
100
AcDbAlignedDimension
 13
364504.4301310869
 23
23388.75545274107
 33
0.0
 14
364504.4301310869
 24
21658.75545274107
 34
0.0
 50
90.0
100
AcDbRotatedDimension
1001
ACAD
1000
DSTYLE
1002
{
1070
    73
1070
     0
1070
    74
1070
     0
1070
   341
1005
0
1070
   173
1070
     0
1070
   342
1005
0
1070
   143
1040
1.0
1070
   284
1070
     4
1070
    78
1070
     8
1070
    40
1040
25.0
1070
   144
1040
1.0
1002
}
  0
DIMENSION
  5
114
330
1F
100
AcDbEntity
  8
DIM
100
AcDbDimension
280
     0
  2
*D11
 10
364204.4301310869
 20
23576.07405400001
 30
0.0
 11
363536.7301310869
 21
23639.82405400001
 31
0.0
 70
    32
  1
1335.4
 71
     5
 42
1335.400000000023
 73
     0
 74
     0
 75
     0
  3
TS1_1
100
AcDbAlignedDimension
 13
362869.0301310869
 23
23388.75545274107
 33
0.0
 14
364204.4301310869
 24
23388.75545274107
 34
0.0
100
AcDbRotatedDimension
1001
ACAD
1000
DSTYLE
1002
{
1070
    73
1070
     0
1070
    74
1070
     0
1070
   341
1005
0
1070
   173
1070
     0
1070
   342
1005
0
1070
   143
1040
1.0
1070
   284
1070
     4
1070
    78
1070
     8
1070
    40
1040
25.0
1070
   144
1040
1.0
1002
}
  0
DIMENSION
  5
121
330
1F
100
AcDbEntity
  8
DIM
100
AcDbDimension
280
     0
  2
*D12
 10
362770.3351310886
 20
21658.75545274107
 30
0.0
 11
362706.5851310886
 21
22523.75545274107
 31
0.0
 70
    32
  1
1730
 71
     5
 42
1730.0
 73
     0
 74
     0
 75
     0
  3
TS1_1
100
AcDbAlignedDimension
 13
362869.0301310869
 23
23388.75545274107
 33
0.0
 14
362869.0301310869
 24
21658.75545274107
 34
0.0
 50
90.0
100
AcDbRotatedDimension
1001
ACAD
1000
DSTYLE
1002
{
1070
    73
1070
     0
1070
    74
1070
     0
1070
   341
1005
0
1070
   173
1070
     0
1070
   342
1005
0
1070
   143
1040
1.0
1070
   284
1070
     4
1070
    78
1070
     8
1070
    40
1040
25.0
1070
   144
1040
1.0
1002
}
  0
DIMENSION
  5
12E
330
1F
100
AcDbEntity
  8
DIM
100
AcDbDimension
280
     0
  2
*D13
 10
362216.3351310884
 20
21658.75545274107
 30
0.0
 11
362152.5851310884
 21
22523.75545274107
 31
0.0
 70
    32
  1
1730
 71
     5
 42
1730.0
 73
     0
 74
     0
 75
     0
  3
TS1_1
100
AcDbAlignedDimension
 13
362315.0301310869
 23
23388.75545274107
 33
0.0
 14
362315.0301310869
 24
21658.75545274107
 34
0.0
 50
90.0
100
AcDbRotatedDimension
1001
ACAD
1000
DSTYLE
1002
{
1070
    73
1070
     0
1070
    74
1070
     0
1070
   341
1005
0
1070
   173
1070
     0
1070
   342
1005
0
1070
   143
1040
1.0
1070
   284
1070
     4
1070
    78
1070
     8
1070
    40
1040
25.0
1070
   144
1040
1.0
1002
}
  0
DIMENSION
  5
13B
330
1F
100
AcDbEntity
  8
DIM
100
AcDbDimension
280
     0
  2
*D14
 10
362569.0301310869
 20
23576.07405400001
 30
0.0
 11
362442.0301310869
 21
23639.82405400001
 31
0.0
 70
    32
  1
254
 71
     5
 42
254.0
 73
     0
 74
     0
 75
     0
  3
TS1_1
100
AcDbAlignedDimension
 13
362315.0301310869
 23
23388.75545274107
 33
0.0
 14
362569.0301310869
 24
23388.75545274107
 34
0.0
100
AcDbRotatedDimension
1001
ACAD
1000
DSTYLE
1002
{
1070
    73
1070
     0
1070
    74
1070
     0
1070
   341
1005
0
1070
   173
1070
     0
1070
   342
1005
0
1070
   143
1040
1.0
1070
   284
1070
     4
1070
    78
1070
     8
1070
    40
1040
25.0
1070
   144
1040
1.0
1002
}
  0
DIMENSION
  5
149
330
1F
100
AcDbEntity
  8
DIM
100
AcDbDimension
280
     0
  2
*D15
 10
365492.7701310878
 20
26436.06545274104
 30
0.0
 11
365429.0201310878
 21
27426.06545274104
 31
0.0
 70
    32
  1
1980
 71
     5
 42
1980.0
 73
     0
 74
     0
 75
     0
  3
TS1_1
100
AcDbAlignedDimension
 13
365564.9001310867
 23
28416.06545274104
 33
0.0
 14
365564.9001310867
 24
26436.06545274104
 34
0.0
 50
90.0
100
AcDbRotatedDimension
1001
ACAD
1000
DSTYLE
1002
{
1070
    73
1070
     0
1070
    74
1070
     0
1070
   341
1005
0
1070
   173
1070
     0
1070
   342
1005
0
1070
   143
1040
1.0
1070
   284
1070
     4
1070
    78
1070
     8
1070
    40
1040
25.0
1070
   144
1040
1.0
1002
}
  0
DIMENSION
  5
156
330
1F
100
AcDbEntity
  8
DIM
100
AcDbDimension
280
     0
  2
*D16
 10
363870.9601310877
 20
26436.06545274106
 30
0.0
 11
363807.2101310877
 21
27426.06545274106
 31
0.0
 70
    32
  1
1980
 71
     5
 42
1980.0
 73
     0
 74
     0
 75
     0
  3
TS1_1
100
AcDbAlignedDimension
 13
363955.7751310867
 23
28416.06545274106
 33
0.0
 14
363955.7751310868
 24
26436.06545274106
 34
0.0
 50
90.0
100
AcDbRotatedDimension
1001
ACAD
1000
DSTYLE
1002
{
1070
    73
1070
     0
1070
    74
1070
     0
1070
   341
1005
0
1070
   173
1070
     0
1070
   342
1005
0
1070
   143
1040
1.0
1070
   284
1070
     4
1070
    78
1070
     8
1070
    40
1040
25.0
1070
   144
1040
1.0
1002
}
  0
DIMENSION
  5
163
330
1F
100
AcDbEntity
  8
DIM
100
AcDbDimension
280
     0
  2
*D17
 10
366933.0251310868
 20
28603.38405399998
 30
0.0
 11
366248.9626310868
 21
28667.13405399998
 31
0.0
 70
    32
  1
1368.1
 71
     5
 42
1368.125000000117
 73
     0
 74
     0
 75
     0
  3
TS1_1
100
AcDbAlignedDimension
 13
365564.9001310867
 23
28416.06545274104
 33
0.0
 14
366933.0251310868
 24
28416.06545274104
 34
0.0
100
AcDbRotatedDimension
1001
ACAD
1000
DSTYLE
1002
{
1070
    73
1070
     0
1070
    74
1070
     0
1070
   341
1005
0
1070
   173
1070
     0
1070
   342
1005
0
1070
   143
1040
1.0
1070
   284
1070
     4
1070
    78
1070
     8
1070
    40
1040
25.0
1070
   144
1040
1.0
1002
}
  0
DIMENSION
  5
170
330
1F
100
AcDbEntity
  8
DIM
100
AcDbDimension
280
     0
  2
*D18
 10
365264.9001310867
 20
28603.384054
 30
0.0
 11
364610.3376310867
 21
28667.134054
 31
0.0
 70
    32
  1
1309.1
 71
     5
 42
1309.125
 73
     0
 74
     0
 75
     0
  3
TS1_1
100
AcDbAlignedDimension
 13
363955.7751310867
 23
28416.06545274106
 33
0.0
 14
365264.9001310867
 24
28416.0654527411
 34
0.0
100
AcDbRotatedDimension
1001
ACAD
1000
DSTYLE
1002
{
1070
    73
1070
     0
1070
    74
1070
     0
1070
   341
1005
0
1070
   173
1070
     0
1070
   342
1005
0
1070
   143
1040
1.0
1070
   284
1070
     4
1070
    78
1070
     8
1070
    40
1040
25.0
1070
   144
1040
1.0
1002
}
  0
DIMENSION
  5
17D
330
1F
100
AcDbEntity
  8
DIM
100
AcDbDimension
280
     0
  2
*D19
 10
363655.7751310867
 20
28603.384054
 30
0.0
 11
362971.2264401071
 21
28667.134054
 31
0.0
 70
    32
  1
1369.1
 71
     5
 42
1369.097381959204
 73
     0
 74
     0
 75
     0
  3
TS1_1
100
AcDbAlignedDimension
 13
362286.6777491275
 23
28416.06545274105
 33
0.0
 14
363655.7751310867
 24
28416.06545274109
 34
0.0
100
AcDbRotatedDimension
1001
ACAD
1000
DSTYLE
1002
{
1070
    73
1070
     0
1070
    74
1070
     0
1070
   341
1005
0
1070
   173
1070
     0
1070
   342
1005
0
1070
   143
1040
1.0
1070
   284
1070
     4
1070
    78
1070
     8
1070
    40
1040
25.0
1070
   144
1040
1.0
1002
}
  0
DIMENSION
  5
18A
330
1F
100
AcDbEntity
  8
DIM
100
AcDbDimension
280
     0
  2
*D20
 10
362154.3901310876
 20
26436.06545274105
 30
0.0
 11
362090.6401310876
 21
27426.06545274105
 31
0.0
 70
    32
  1
1980
 71
     5
 42
1980.0
 73
     0
 74
     0
 75
     0
  3
TS1_1
100
AcDbAlignedDimension
 13
362286.6777491275
 23
28416.06545274105
 33
0.0
 14
362286.6777491275
 24
26436.06545274105
 34
0.0
 50
90.0
100
AcDbRotatedDimension
1001
ACAD
1000
DSTYLE
1002
{
1070
    73
1070
     0
1070
    74
1070
     0
1070
   341
1005
0
1070
   173
1070
     0
1070
   342
1005
0
1070
   143
1040
1.0
1070
   284
1070
     4
1070
    78
1070
     8
1070
    40
1040
25.0
1070
   144
1040
1.0
1002
}
  0
POLYLINE
  5
197
330
1F
100
AcDbEntity
  8
Inside
100
AcDb2dPolyline
 66
     1
 10
0.0
 20
0.0
 30
0.0
 70
     1
  0
VERTEX
  5
198
330
197
100
AcDbEntity
  8
Inside
100
AcDbVertex
100
AcDb2dVertex
 10
365397.5893503606
 20
22596.56581755448
 30
0.0
  0
VERTEX
  5
199
330
197
100
AcDbEntity
  8
Inside
100
AcDbVertex
100
AcDb2dVertex
 10
365735.5893503606
 20
22596.56581755448
 30
0.0
  0
VERTEX
  5
19A
330
197
100
AcDbEntity
  8
Inside
100
AcDbVertex
100
AcDb2dVertex
 10
365735.5893503608
 20
22540.56581755448
 30
0.0
  0
VERTEX
  5
19B
330
197
100
AcDbEntity
  8
Inside
100
AcDbVertex
100
AcDb2dVertex
 10
365397.5893503607
 20
22540.56581755448
 30
0.0
  0
SEQEND
  5
19C
330
197
100
AcDbEntity
  8
Inside
  0
POLYLINE
  5
19D
330
1F
100
AcDbEntity
  8
Outside
100
AcDb2dPolyline
 66
     1
 10
0.0
 20
0.0
 30
0.0
 70
     1
  0
VERTEX
  5
19E
330
19D
100
AcDbEntity
  8
Outside
100
AcDbVertex
100
AcDb2dVertex
 10
368876.0251310867
 20
28416.06545274105
 30
0.0
  0
VERTEX
  5
19F
330
19D
100
AcDbEntity
  8
Outside
100
AcDbVertex
100
AcDb2dVertex
 10
369130.0251310867
 20
28416.06545274105
 30
0.0
  0
VERTEX
  5
1A0
330
19D
100
AcDbEntity
  8
Outside
100
AcDbVertex
100
AcDb2dVertex
 10
369130.0251310867
 20
26401.06545274105
 30
0.0
  0
VERTEX
  5
1A1
330
19D
100
AcDbEntity
  8
Outside
100
AcDbVertex
100
AcDb2dVertex
 10
368876.0251310868
 20
26401.06545274105
 30
0.0
  0
SEQEND
  5
1A2
330
19D
100
AcDbEntity
  8
Outside
  0
POLYLINE
  5
1A3
330
1F
100
AcDbEntity
  8
Outside
100
AcDb2dPolyline
 66
     1
 10
0.0
 20
0.0
 30
0.0
 70
     1
  0
VERTEX
  5
1A4
330
1A3
100
AcDbEntity
  8
Outside
100
AcDbVertex
100
AcDb2dVertex
 10
367233.0251310868
 20
28416.06545274104
 30
0.0
  0
VERTEX
  5
1A5
330
1A3
100
AcDbEntity
  8
Outside
100
AcDbVertex
100
AcDb2dVertex
 10
368576.0251310867
 20
28416.06545274104
 30
0.0
  0
VERTEX
  5
1A6
330
1A3
100
AcDbEntity
  8
Outside
100
AcDbVertex
100
AcDb2dVertex
 10
368576.0251310868
 20
26401.06545274104
 30
0.0
  0
VERTEX
  5
1A7
330
1A3
100
AcDbEntity
  8
Outside
100
AcDbVertex
100
AcDb2dVertex
 10
367233.0251310868
 20
26401.06545274104
 30
0.0
  0
SEQEND
  5
1A8
330
1A3
100
AcDbEntity
  8
Outside
  0
POLYLINE
  5
1A9
330
1F
100
AcDbEntity
  8
Outside
100
AcDb2dPolyline
 66
     1
 10
0.0
 20
0.0
 30
0.0
 70
     1
  0
VERTEX
  5
1AA
330
1A9
100
AcDbEntity
  8
Outside
100
AcDbVertex
100
AcDb2dVertex
 10
368040.7301310869
 20
23388.75545274107
 30
0.0
  0
VERTEX
  5
1AB
330
1A9
100
AcDbEntity
  8
Outside
100
AcDbVertex
100
AcDb2dVertex
 10
368040.730131087
 20
21658.75545274107
 30
0.0
  0
VERTEX
  5
1AC
330
1A9
100
AcDbEntity
  8
Outside
100
AcDbVertex
100
AcDb2dVertex
 10
368210.730131087
 20
21658.75545274107
 30
0.0
  0
VERTEX
  5
1AD
330
1A9
100
AcDbEntity
  8
Outside
100
AcDbVertex
100
AcDb2dVertex
 10
368210.7301310869
 20
23388.75545274106
 30
0.0
  0
SEQEND
  5
1AE
330
1A9
100
AcDbEntity
  8
Outside
  0
POLYLINE
  5
1AF
330
1F
100
AcDbEntity
  8
Outside
100
AcDb2dPolyline
 66
     1
 10
0.0
 20
0.0
 30
0.0
 70
     1
  0
VERTEX
  5
1B0
330
1AF
100
AcDbEntity
  8
Outside
100
AcDbVertex
100
AcDb2dVertex
 10
366385.7301310869
 20
23388.75545274107
 30
0.0
  0
VERTEX
  5
1B1
330
1AF
100
AcDbEntity
  8
Outside
100
AcDbVertex
100
AcDb2dVertex
 10
367740.730131087
 20
23388.75545274107
 30
0.0
  0
VERTEX
  5
1B2
330
1AF
100
AcDbEntity
  8
Outside
100
AcDbVertex
100
AcDb2dVertex
 10
367740.730131087
 20
21658.75545274107
 30
0.0
  0
VERTEX
  5
1B3
330
1AF
100
AcDbEntity
  8
Outside
100
AcDbVertex
100
AcDb2dVertex
 10
366385.730131087
 20
21658.75545274107
 30
0.0
  0
SEQEND
  5
1B4
330
1AF
100
AcDbEntity
  8
Outside
  0
POLYLINE
  5
1B5
330
1F
100
AcDbEntity
  8
Outside
100
AcDb2dPolyline
 66
     1
 10
0.0
 20
0.0
 30
0.0
 70
     1
  0
VERTEX
  5
1B6
330
1B5
100
AcDbEntity
  8
Outside
100
AcDbVertex
100
AcDb2dVertex
 10
364504.430131087
 20
21658.75545274107
 30
0.0
  0
VERTEX
  5
1B7
330
1B5
100
AcDbEntity
  8
Outside
100
AcDbVertex
100
AcDb2dVertex
 10
366085.730131087
 20
21658.75545274107
 30
0.0
  0
VERTEX
  5
1B8
330
1B5
100
AcDbEntity
  8
Outside
100
AcDbVertex
100
AcDb2dVertex
 10
366085.7301310869
 20
23388.75545274107
 30
0.0
  0
VERTEX
  5
1B9
330
1B5
100
AcDbEntity
  8
Outside
100
AcDbVertex
100
AcDb2dVertex
 10
364504.4301310869
 20
23388.75545274107
 30
0.0
  0
SEQEND
  5
1BA
330
1B5
100
AcDbEntity
  8
Outside
  0
POLYLINE
  5
1BB
330
1F
100
AcDbEntity
  8
Outside
100
AcDb2dPolyline
 66
     1
 10
0.0
 20
0.0
 30
0.0
 70
     1
  0
VERTEX
  5
1BC
330
1BB
100
AcDbEntity
  8
Outside
100
AcDbVertex
100
AcDb2dVertex
 10
362869.0301310869
 20
23388.75545274107
 30
0.0
  0
VERTEX
  5
1BD
330
1BB
100
AcDbEntity
  8
Outside
100
AcDbVertex
100
AcDb2dVertex
 10
364204.4301310869
 20
23388.75545274107
 30
0.0
  0
VERTEX
  5
1BE
330
1BB
100
AcDbEntity
  8
Outside
100
AcDbVertex
100
AcDb2dVertex
 10
364204.4301310869
 20
21658.75545274107
 30
0.0
  0
VERTEX
  5
1BF
330
1BB
100
AcDbEntity
  8
Outside
100
AcDbVertex
100
AcDb2dVertex
 10
362869.030131087
 20
21658.75545274107
 30
0.0
  0
SEQEND
  5
1C0
330
1BB
100
AcDbEntity
  8
Outside
  0
POLYLINE
  5
1C1
330
1F
100
AcDbEntity
  8
Outside
100
AcDb2dPolyline
 66
     1
 10
0.0
 20
0.0
 30
0.0
 70
     1
  0
VERTEX
  5
1C2
330
1C1
100
AcDbEntity
  8
Outside
100
AcDbVertex
100
AcDb2dVertex
 10
362315.0301310869
 20
23388.75545274107
 30
0.0
  0
VERTEX
  5
1C3
330
1C1
100
AcDbEntity
  8
Outside
100
AcDbVertex
100
AcDb2dVertex
 10
362569.0301310869
 20
23388.75545274107
 30
0.0
  0
VERTEX
  5
1C4
330
1C1
100
AcDbEntity
  8
Outside
100
AcDbVertex
100
AcDb2dVertex
 10
362569.0301310869
 20
21658.75545274107
 30
0.0
  0
VERTEX
  5
1C5
330
1C1
100
AcDbEntity
  8
Outside
100
AcDbVertex
100
AcDb2dVertex
 10
362315.030131087
 20
21658.75545274107
 30
0.0
  0
SEQEND
  5
1C6
330
1C1
100
AcDbEntity
  8
Outside
  0
POLYLINE
  5
1C7
330
1F
100
AcDbEntity
  8
Outside
100
AcDb2dPolyline
 66
     1
 10
0.0
 20
0.0
 30
0.0
 70
     1
  0
VERTEX
  5
1C8
330
1C7
100
AcDbEntity
  8
Outside
100
AcDbVertex
100
AcDb2dVertex
 10
366933.0251310868
 20
28416.06545274104
 30
0.0
  0
VERTEX
  5
1C9
330
1C7
100
AcDbEntity
  8
Outside
100
AcDbVertex
100
AcDb2dVertex
 10
365564.9001310867
 20
28416.06545274104
 30
0.0
  0
VERTEX
  5
1CA
330
1C7
100
AcDbEntity
  8
Outside
100
AcDbVertex
100
AcDb2dVertex
 10
365564.9001310867
 20
26436.06545274104
 30
0.0
  0
VERTEX
  5
1CB
330
1C7
100
AcDbEntity
  8
Outside
100
AcDbVertex
100
AcDb2dVertex
 10
366933.0251310867
 20
26436.06545274102
 30
0.0
  0
SEQEND
  5
1CC
330
1C7
100
AcDbEntity
  8
Outside
  0
POLYLINE
  5
1CD
330
1F
100
AcDbEntity
  8
Outside
100
AcDb2dPolyline
 66
     1
 10
0.0
 20
0.0
 30
0.0
 70
     1
  0
VERTEX
  5
1CE
330
1CD
100
AcDbEntity
  8
Outside
100
AcDbVertex
100
AcDb2dVertex
 10
363955.7751310867
 20
28416.06545274106
 30
0.0
  0
VERTEX
  5
1CF
330
1CD
100
AcDbEntity
  8
Outside
100
AcDbVertex
100
AcDb2dVertex
 10
363955.7751310868
 20
26436.06545274106
 30
0.0
  0
VERTEX
  5
1D0
330
1CD
100
AcDbEntity
  8
Outside
100
AcDbVertex
100
AcDb2dVertex
 10
365264.9001310868
 20
26436.06545274106
 30
0.0
  0
VERTEX
  5
1D1
330
1CD
100
AcDbEntity
  8
Outside
100
AcDbVertex
100
AcDb2dVertex
 10
365264.9001310867
 20
28416.06545274106
 30
0.0
  0
SEQEND
  5
1D2
330
1CD
100
AcDbEntity
  8
Outside
  0
POLYLINE
  5
1D3
330
1F
100
AcDbEntity
  8
Outside
100
AcDb2dPolyline
 66
     1
 10
0.0
 20
0.0
 30
0.0
 70
     1
  0
VERTEX
  5
1D4
330
1D3
100
AcDbEntity
  8
Outside
100
AcDbVertex
100
AcDb2dVertex
 10
362286.6777491275
 20
28416.06545274105
 30
0.0
  0
VERTEX
  5
1D5
330
1D3
100
AcDbEntity
  8
Outside
100
AcDbVertex
100
AcDb2dVertex
 10
362286.6777491275
 20
26436.06545274105
 30
0.0
  0
VERTEX
  5
1D6
330
1D3
100
AcDbEntity
  8
Outside
100
AcDbVertex
100
AcDb2dVertex
 10
363655.7751310868
 20
26436.06545274108
 30
0.0
  0
VERTEX
  5
1D7
330
1D3
100
AcDbEntity
  8
Outside
100
AcDbVertex
100
AcDb2dVertex
 10
363655.7751310867
 20
28416.06545274106
 30
0.0
  0
SEQEND
  5
1D8
330
1D3
100
AcDbEntity
  8
Outside
  0
ENDSEC
  0
SECTION
  2
OBJECTS
  0
DICTIONARY
  5
C
330
0
100
AcDbDictionary
281
     1
  3
ACAD_DETAILVIEWSTYLE
350
1E0
  3
ACAD_GROUP
350
D
  3
ACAD_LAYOUT
350
1A
  3
ACAD_MATERIAL
350
43
  3
ACAD_MLEADERSTYLE
350
5B
  3
ACAD_MLINESTYLE
350
17
  3
ACAD_PLOTSETTINGS
350
19
  3
ACAD_PLOTSTYLENAME
350
E
  3
ACAD_SCALELIST
350
47
  3
ACAD_SECTIONVIEWSTYLE
350
1E1
  3
ACAD_TABLESTYLE
350
59
  3
ACAD_VISUALSTYLE
350
2A
  3
ACDB_RECOMPOSE_DATA
350
1DD
  3
AcDbVariableDictionary
350
1D9
  0
SUN
  5
5D
330
29
100
AcDbSun
 90
        1
290
     0
 63
     7
421
 16777215
 40
1.0
291
     1
 91
  2455826
 92
 54000000
292
     0
 70
     2
 71
   256
280
     1
  0
DICTIONARY
  5
1E0
102
{ACAD_REACTORS
330
C
102
}
330
C
100
AcDbDictionary
281
     1
  0
DICTIONARY
  5
D
102
{ACAD_REACTORS
330
C
102
}
330
C
100
AcDbDictionary
281
     1
  0
DICTIONARY
  5
1A
102
{ACAD_REACTORS
330
C
102
}
330
C
100
AcDbDictionary
281
     1
  3
Model
350
22
  0
DICTIONARY
  5
43
102
{ACAD_REACTORS
330
C
102
}
330
C
100
AcDbDictionary
281
     1
  3
ByBlock
350
45
  3
ByLayer
350
44
  3
Global
350
46
  0
DICTIONARY
  5
5B
102
{ACAD_REACTORS
330
C
102
}
330
C
100
AcDbDictionary
281
     1
  3
Standard
350
5C
  0
DICTIONARY
  5
17
102
{ACAD_REACTORS
330
C
102
}
330
C
100
AcDbDictionary
281
     1
  3
Standard
350
18
  0
DICTIONARY
  5
19
102
{ACAD_REACTORS
330
C
102
}
330
C
100
AcDbDictionary
281
     1
  0
ACDBDICTIONARYWDFLT
  5
E
102
{ACAD_REACTORS
330
C
102
}
330
C
100
AcDbDictionary
281
     1
  3
Normal
350
F
100
AcDbDictionaryWithDefault
340
F
  0
DICTIONARY
  5
47
102
{ACAD_REACTORS
330
C
102
}
330
C
100
AcDbDictionary
281
     1
  3
A0
350
48
  3
A1
350
49
  3
A2
350
4A
  3
A3
350
4B
  3
A4
350
4C
  3
A5
350
4D
  3
A6
350
4E
  3
A7
350
4F
  3
A8
350
50
  3
A9
350
51
  3
B1
350
52
  3
B2
350
53
  3
B3
350
54
  3
B4
350
55
  3
B5
350
56
  3
B6
350
57
  3
B7
350
58
  0
DICTIONARY
  5
1E1
102
{ACAD_REACTORS
330
C
102
}
330
C
100
AcDbDictionary
281
     1
  0
DICTIONARY
  5
59
102
{ACAD_REACTORS
330
C
102
}
330
C
100
AcDbDictionary
281
     1
  3
Standard
350
5A
  0
DICTIONARY
  5
2A
102
{ACAD_REACTORS
330
C
102
}
330
C
100
AcDbDictionary
281
     1
  3
2dWireframe
350
2F
  3
Basic
350
32
  3
Brighten
350
36
  3
ColorChange
350
3A
  3
Conceptual
350
34
  3
Dim
350
35
  3
EdgeColorOff
350
3D
  3
Facepattern
350
39
  3
Flat
350
2B
  3
FlatWithEdges
350
2C
  3
Gouraud
350
2D
  3
GouraudWithEdges
350
2E
  3
Hidden
350
31
  3
JitterOff
350
3B
  3
Linepattern
350
38
  3
OverhangOff
350
3C
  3
Realistic
350
33
  3
Shaded
350
42
  3
Shaded with edges
350
41
  3
Shades of Gray
350
3E
  3
Sketchy
350
3F
  3
Thicken
350
37
  3
Wireframe
350
30
  3
X-Ray
350
40
  0
XRECORD
  5
1DD
102
{ACAD_REACTORS
330
C
102
}
330
C
100
AcDbXrecord
280
     1
 90
        1
330
5A
  0
DICTIONARY
  5
1D9
102
{ACAD_REACTORS
330
C
102
}
330
C
100
AcDbDictionary
281
     1
  3
CANNOSCALE
350
1DA
  3
CMLEADERSTYLE
350
1DF
  3
CTABLESTYLE
350
1DE
  0
LAYOUT
  5
22
102
{ACAD_REACTORS
330
1A
102
}
330
1A
100
AcDbPlotSettings
  1

  2
none_device
  4
Letter_(8.50_x_11.00_Inches)
  6

 40
6.35
 41
6.35
 42
6.35000508
 43
6.35000508
 44
215.9
 45
279.4
 46
0.0
 47
0.0
 48
0.0
 49
0.0
140
0.0
141
0.0
142
1.0
143
1.0
 70
  1712
 72
     0
 73
     0
 74
     0
  7

 75
     0
 76
     0
 77
     2
 78
   300
147
1.0
148
0.0
149
0.0
100
AcDbLayout
  1
Model
 70
     1
 71
     0
 10
0.0
 20
0.0
 11
12.0
 21
9.0
 12
0.0
 22
0.0
 32
0.0
 14
361760.0157030997
 24
21125.29798092583
 34
0.0
 15
369394.4853141788
 25
29586.60592586301
 35
0.0
146
0.0
 13
0.0
 23
0.0
 33
0.0
 16
1.0
 26
0.0
 36
0.0
 17
0.0
 27
1.0
 37
0.0
 76
     0
330
1F
331
29
  0
MATERIAL
  5
45
102
{ACAD_REACTORS
330
43
102
}
330
43
100
AcDbMaterial
  1
ByBlock
 72
     1
 94
      127
  0
MATERIAL
  5
44
102
{ACAD_REACTORS
330
43
102
}
330
43
100
AcDbMaterial
  1
ByLayer
 72
     1
 94
      127
  0
MATERIAL
  5
46
102
{ACAD_REACTORS
330
43
102
}
330
43
100
AcDbMaterial
  1
Global
 72
     1
 94
      127
  0
MLEADERSTYLE
  5
5C
102
{ACAD_REACTORS
330
5B
102
}
330
5B
100
AcDbMLeaderStyle
179
     2
170
     2
171
     1
172
     0
 90
        2
 40
0.0
 41
0.0
173
     1
 91
-1056964608
340
14
 92
       -2
290
     1
 42
0.09
291
     1
 43
0.36
  3
Standard
341
0
 44
0.18
300

342
11
174
     1
178
     6
175
     1
176
     0
 93
-1056964608
 45
0.18
292
     0
297
     0
 46
0.18
343
0
 94
-1056964608
 47
1.0
 49
1.0
140
1.0
293
     1
141
0.0
294
     1
177
     0
142
1.0
295
     0
296
     0
143
0.125
271
     0
272
     9
273
     9
298
     0
  0
MLINESTYLE
  5
18
102
{ACAD_REACTORS
330
17
102
}
330
17
100
AcDbMlineStyle
  2
Standard
 70
     0
  3

 62
   256
 51
90.0
 52
90.0
 71
     2
 49
0.5
 62
   256
  6
BYLAYER
 49
-0.5
 62
   256
  6
BYLAYER
  0
ACDBPLACEHOLDER
  5
F
102
{ACAD_REACTORS
330
E
102
}
330
E
  0
SCALE
  5
48
102
{ACAD_REACTORS
330
47
102
}
330
47
100
AcDbScale
 70
     0
300
1:1
140
1.0
141
1.0
290
     1
  0
SCALE
  5
49
102
{ACAD_REACTORS
330
47
102
}
330
47
100
AcDbScale
 70
     0
300
1/128" = 1'-0"
140
0.0078125
141
12.0
290
     0
  0
SCALE
  5
4A
102
{ACAD_REACTORS
330
47
102
}
330
47
100
AcDbScale
 70
     0
300
1/64" = 1'-0"
140
0.015625
141
12.0
290
     0
  0
SCALE
  5
4B
102
{ACAD_REACTORS
330
47
102
}
330
47
100
AcDbScale
 70
     0
300
1/32" = 1'-0"
140
0.03125
141
12.0
290
     0
  0
SCALE
  5
4C
102
{ACAD_REACTORS
330
47
102
}
330
47
100
AcDbScale
 70
     0
300
1/16" = 1'-0"
140
0.0625
141
12.0
290
     0
  0
SCALE
  5
4D
102
{ACAD_REACTORS
330
47
102
}
330
47
100
AcDbScale
 70
     0
300
3/32" = 1'-0"
140
0.09375
141
12.0
290
     0
  0
SCALE
  5
4E
102
{ACAD_REACTORS
330
47
102
}
330
47
100
AcDbScale
 70
     0
300
1/8" = 1'-0"
140
0.125
141
12.0
290
     0
  0
SCALE
  5
4F
102
{ACAD_REACTORS
330
47
102
}
330
47
100
AcDbScale
 70
     0
300
3/16" = 1'-0"
140
0.1875
141
12.0
290
     0
  0
SCALE
  5
50
102
{ACAD_REACTORS
330
47
102
}
330
47
100
AcDbScale
 70
     0
300
1/4" = 1'-0"
140
0.25
141
12.0
290
     0
  0
SCALE
  5
51
102
{ACAD_REACTORS
330
47
102
}
330
47
100
AcDbScale
 70
     0
300
3/8" = 1'-0"
140
0.375
141
12.0
290
     0
  0
SCALE
  5
52
102
{ACAD_REACTORS
330
47
102
}
330
47
100
AcDbScale
 70
     0
300
1/2" = 1'-0"
140
0.5
141
12.0
290
     0
  0
SCALE
  5
53
102
{ACAD_REACTORS
330
47
102
}
330
47
100
AcDbScale
 70
     0
300
3/4" = 1'-0"
140
0.75
141
12.0
290
     0
  0
SCALE
  5
54
102
{ACAD_REACTORS
330
47
102
}
330
47
100
AcDbScale
 70
     0
300
1" = 1'-0"
140
1.0
141
12.0
290
     0
  0
SCALE
  5
55
102
{ACAD_REACTORS
330
47
102
}
330
47
100
AcDbScale
 70
     0
300
1-1/2" = 1'-0"
140
1.5
141
12.0
290
     0
  0
SCALE
  5
56
102
{ACAD_REACTORS
330
47
102
}
330
47
100
AcDbScale
 70
     0
300
3" = 1'-0"
140
3.0
141
12.0
290
     0
  0
SCALE
  5
57
102
{ACAD_REACTORS
330
47
102
}
330
47
100
AcDbScale
 70
     0
300
6" = 1'-0"
140
6.0
141
12.0
290
     0
  0
SCALE
  5
58
102
{ACAD_REACTORS
330
47
102
}
330
47
100
AcDbScale
 70
     0
300
1'-0" = 1'-0"
140
12.0
141
12.0
290
     0
  0
TABLESTYLE
  5
5A
102
{ACAD_REACTORS
330
59
102
}
102
{ACAD_XDICTIONARY
360
1DB
102
}
330
59
100
AcDbTableStyle
  3
Standard
 70
     0
 71
     0
 40
0.06
 41
0.06
280
     0
281
     0
  7
Standard
140
0.18
170
     2
 62
     0
 63
   257
283
     0
 90
        4
 91
        0
  1

274
    -2
284
     1
 64
     0
275
    -2
285
     1
 65
     0
276
    -2
286
     1
 66
     0
277
    -2
287
     1
 67
     0
278
    -2
288
     1
 68
     0
279
    -2
289
     1
 69
     0
  7
Standard
140
0.25
170
     5
 62
     0
 63
   257
283
     0
 90
        4
 91
        0
  1

274
    -2
284
     1
 64
     0
275
    -2
285
     1
 65
     0
276
    -2
286
     1
 66
     0
277
    -2
287
     1
 67
     0
278
    -2
288
     1
 68
     0
279
    -2
289
     1
 69
     0
  7
Standard
140
0.18
170
     5
 62
     0
 63
   257
283
     0
 90
        4
 91
        0
  1

274
    -2
284
     1
 64
     0
275
    -2
285
     1
 65
     0
276
    -2
286
     1
 66
     0
277
    -2
287
     1
 67
     0
278
    -2
288
     1
 68
     0
279
    -2
289
     1
 69
     0
  0
VISUALSTYLE
  5
2F
102
{ACAD_REACTORS
330
2A
102
}
330
2A
100
AcDbVisualStyle
  2
2dWireframe
 70
     4
177
     3
291
     0
 70
    58
 90
        0
176
     1
 90
        2
176
     1
 90
        0
176
     1
 90
        0
176
     1
 40
0.6
176
     1
 40
30.0
176
     1
 62
     7
420
 16777215
176
     1
 90
        1
176
     1
 90
        4
176
     1
 62
     7
176
     1
 62
   257
176
     1
 90
        1
176
     1
 90
        1
176
     1
 40
1.0
176
     1
 90
        0
176
     1
 62
   257
176
     1
 40
1.0
176
     1
 90
        1
176
     1
 90
        6
176
     1
 90
        2
176
     1
 62
     7
176
     1
 90
        5
176
     1
 90
        0
176
     1
 90
        0
176
     1
290
     0
176
     1
 90
        1
176
     1
 40
0.0
176
     1
 90
        0
176
     1
290
     1
176
     1
290
     1
176
     1
290
     0
176
     1
290
     0
176
     1
290
     0
176
     1
290
     0
176
     1
290
     0
176
     1
290
     0
176
     1
290
     0
176
     1
 90
       50
176
     1
 40
0.0
176
     1
 40
1.0
176
     1
 90
        0
176
     1
 62
    18
420
        0
176
     1
 90
       50
176
     1
 90
        3
176
     1
 62
     5
420
      255
176
     1
290
     0
176
     1
 90
       50
176
     1
 90
       50
176
     1
 90
       50
176
     1
290
     0
176
     1
 90
       50
176
     1
 62
   256
176
     0
 40
1.0
176
     0
 90
        2
176
     1
  1
strokes_ogs.tif
176
     1
290
     0
176
     1
 40
1.0
176
     1
 40
1.0
176
     1
  0
VISUALSTYLE
  5
32
102
{ACAD_REACTORS
330
2A
102
}
330
2A
100
AcDbVisualStyle
  2
Basic
 70
     7
177
     3
291
     1
 70
    58
 90
        1
176
     1
 90
        0
176
     1
 90
        1
176
     1
 90
        0
176
     1
 40
0.6
176
     1
 40
30.0
176
     1
 62
     7
420
 16777215
176
     1
 90
        0
176
     1
 90
        4
176
     1
 62
     7
176
     1
 62
   257
176
     1
 90
        1
176
     1
 90
        1
176
     1
 40
1.0
176
     1
 90
        8
176
     1
 62
     7
176
     1
 40
1.0
176
     1
 90
        1
176
     1
 90
        6
176
     1
 90
        2
176
     1
 62
     7
176
     1
 90
        5
176
     1
 90
        0
176
     1
 90
        0
176
     1
290
     0
176
     1
 90
        1
176
     1
 40
0.0
176
     1
 90
        0
176
     1
290
     0
176
     1
290
     1
176
     1
290
     1
176
     1
290
     0
176
     1
290
     0
176
     1
290
     0
176
     1
290
     0
176
     1
290
     0
176
     1
290
     0
176
     1
 90
       50
176
     1
 40
0.0
176
     1
 40
1.0
176
     1
 90
        0
176
     1
 62
    18
420
        0
176
     1
 90
       50
176
     1
 90
        3
176
     1
 62
     5
420
      255
176
     1
290
     0
176
     1
 90
       50
176
     1
 90
       50
176
     1
 90
       50
176
     1
290
     0
176
     1
 90
       50
176
     1
 62
   256
176
     0
 40
1.0
176
     0
 90
        2
176
     1
  1
strokes_ogs.tif
176
     1
290
     0
176
     1
 40
1.0
176
     1
 40
1.0
176
     1
  0
VISUALSTYLE
  5
36
102
{ACAD_REACTORS
330
2A
102
}
330
2A
100
AcDbVisualStyle
  2
Brighten
 70
    12
177
     3
291
     1
 70
    58
 90
        2
176
     1
 90
        2
176
     1
 90
        0
176
     1
 90
        0
176
     1
 40
0.6
176
     1
 40
30.0
176
     1
 62
     7
420
 16777215
176
     1
 90
        1
176
     1
 90
        4
176
     1
 62
     7
176
     1
 62
   257
176
     1
 90
        1
176
     1
 90
        1
176
     1
 40
1.0
176
     1
 90
        8
176
     1
 62
     7
176
     1
 40
1.0
176
     1
 90
        1
176
     1
 90
        6
176
     1
 90
        2
176
     1
 62
     7
176
     1
 90
        5
176
     1
 90
        0
176
     1
 90
        0
176
     1
290
     0
176
     1
 90
        1
176
     1
 40
50.0
176
     1
 90
        0
176
     1
290
     0
176
     1
290
     1
176
     1
290
     1
176
     1
290
     0
176
     1
290
     0
176
     1
290
     0
176
     1
290
     0
176
     1
290
     0
176
     1
290
     0
176
     1
 90
       50
176
     1
 40
0.0
176
     1
 40
1.0
176
     1
 90
        0
176
     1
 62
    18
420
        0
176
     1
 90
       50
176
     1
 90
        3
176
     1
 62
     5
420
      255
176
     1
290
     0
176
     1
 90
       50
176
     1
 90
       50
176
     1
 90
       50
176
     1
290
     0
176
     1
 90
       50
176
     1
 62
   256
176
     0
 40
1.0
176
     0
 90
        2
176
     1
  1
strokes_ogs.tif
176
     1
290
     0
176
     1
 40
1.0
176
     1
 40
1.0
176
     1
  0
VISUALSTYLE
  5
3A
102
{ACAD_REACTORS
330
2A
102
}
330
2A
100
AcDbVisualStyle
  2
ColorChange
 70
    16
177
     3
291
     1
 70
    58
 90
        2
176
     1
 90
        2
176
     1
 90
        3
176
     1
 90
        0
176
     1
 40
0.6
176
     1
 40
30.0
176
     1
 62
     8
420
  8421504
176
     1
 90
        1
176
     1
 90
        4
176
     1
 62
     7
176
     1
 62
   257
176
     1
 90
        1
176
     1
 90
        1
176
     1
 40
1.0
176
     1
 90
        8
176
     1
 62
     8
420
  8421504
176
     1
 40
1.0
176
     1
 90
        1
176
     1
 90
        6
176
     1
 90
        2
176
     1
 62
     7
176
     1
 90
        5
176
     1
 90
        0
176
     1
 90
        0
176
     1
290
     0
176
     1
 90
        1
176
     1
 40
0.0
176
     1
 90
        0
176
     1
290
     0
176
     1
290
     1
176
     1
290
     1
176
     1
290
     0
176
     1
290
     0
176
     1
290
     0
176
     1
290
     0
176
     1
290
     0
176
     1
290
     0
176
     1
 90
       50
176
     1
 40
0.0
176
     1
 40
1.0
176
     1
 90
        0
176
     1
 62
    18
420
        0
176
     1
 90
       50
176
     1
 90
        3
176
     1
 62
     5
420
      255
176
     1
290
     0
176
     1
 90
       50
176
     1
 90
       50
176
     1
 90
       50
176
     1
290
     0
176
     1
 90
       50
176
     1
 62
   256
176
     0
 40
1.0
176
     0
 90
        2
176
     1
  1
strokes_ogs.tif
176
     1
290
     0
176
     1
 40
1.0
176
     1
 40
1.0
176
     1
  0
VISUALSTYLE
  5
34
102
{ACAD_REACTORS
330
2A
102
}
330
2A
100
AcDbVisualStyle
  2
Conceptual
 70
     9
177
     3
291
     0
 70
    58
 90
        3
176
     1
 90
        2
176
     1
 90
        0
176
     1
 90
        0
176
     1
 40
0.6
176
     1
 40
30.0
176
     1
 62
     7
420
 16777215
176
     1
 90
        2
176
     1
 90
        2
176
     1
 62
     7
176
     1
 62
   257
176
     1
 90
        1
176
     1
 90
        1
176
     1
 40
179.0
176
     1
 90
        8
176
     1
 62
     7
176
     1
 40
1.0
176
     1
 90
        1
176
     1
 90
        6
176
     1
 90
        2
176
     1
 62
     7
176
     1
 90
        3
176
     1
 90
        0
176
     1
 90
        0
176
     1
290
     0
176
     1
 90
        1
176
     1
 40
0.0
176
     1
 90
        0
176
     1
290
     0
176
     1
290
     1
176
     1
290
     1
176
     1
290
     0
176
     1
290
     0
176
     1
290
     0
176
     1
290
     0
176
     1
290
     0
176
     1
290
     0
176
     1
 90
       50
176
     1
 40
0.0
176
     1
 40
1.0
176
     1
 90
        0
176
     1
 62
    18
420
        0
176
     1
 90
       50
176
     1
 90
        3
176
     1
 62
     5
420
      255
176
     1
290
     0
176
     1
 90
       50
176
     1
 90
       50
176
     1
 90
       50
176
     1
290
     0
176
     1
 90
       50
176
     1
 62
   256
176
     0
 40
1.0
176
     0
 90
        2
176
     1
  1
strokes_ogs.tif
176
     1
290
     0
176
     1
 40
1.0
176
     1
 40
1.0
176
     1
  0
VISUALSTYLE
  5
35
102
{ACAD_REACTORS
330
2A
102
}
330
2A
100
AcDbVisualStyle
  2
Dim
 70
    11
177
     3
291
     1
 70
    58
 90
        2
176
     1
 90
        2
176
     1
 90
        0
176
     1
 90
        0
176
     1
 40
0.6
176
     1
 40
30.0
176
     1
 62
     7
420
 16777215
176
     1
 90
        1
176
     1
 90
        4
176
     1
 62
     7
176
     1
 62
   257
176
     1
 90
        1
176
     1
 90
        1
176
     1
 40
1.0
176
     1
 90
        8
176
     1
 62
     7
176
     1
 40
1.0
176
     1
 90
        1
176
     1
 90
        6
176
     1
 90
        2
176
     1
 62
     7
176
     1
 90
        5
176
     1
 90
        0
176
     1
 90
        0
176
     1
290
     0
176
     1
 90
        1
176
     1
 40
-50.0
176
     1
 90
        0
176
     1
290
     0
176
     1
290
     1
176
     1
290
     1
176
     1
290
     0
176
     1
290
     0
176
     1
290
     0
176
     1
290
     0
176
     1
290
     0
176
     1
290
     0
176
     1
 90
       50
176
     1
 40
0.0
176
     1
 40
1.0
176
     1
 90
        0
176
     1
 62
    18
420
        0
176
     1
 90
       50
176
     1
 90
        3
176
     1
 62
     5
420
      255
176
     1
290
     0
176
     1
 90
       50
176
     1
 90
       50
176
     1
 90
       50
176
     1
290
     0
176
     1
 90
       50
176
     1
 62
   256
176
     0
 40
1.0
176
     0
 90
        2
176
     1
  1
strokes_ogs.tif
176
     1
290
     0
176
     1
 40
1.0
176
     1
 40
1.0
176
     1
  0
VISUALSTYLE
  5
3D
102
{ACAD_REACTORS
330
2A
102
}
330
2A
100
AcDbVisualStyle
  2
EdgeColorOff
 70
    22
177
     3
291
     1
 70
    58
 90
        2
176
     0
 90
        2
176
     0
 90
        0
176
     0
 90
        0
176
     0
 40
0.6
176
     0
 40
30.0
176
     0
 62
     7
420
 16777215
176
     0
 90
        1
176
     0
 90
        4
176
     0
 62
     7
176
     0
 62
   257
176
     0
 90
        1
176
     0
 90
        1
176
     0
 40
1.0
176
     0
 90
        8
176
     2
 62
     7
176
     0
 40
1.0
176
     0
 90
        1
176
     0
 90
        6
176
     0
 90
        2
176
     0
 62
     7
176
     0
 90
        5
176
     0
 90
        0
176
     0
 90
        0
176
     0
290
     0
176
     0
 90
        1
176
     0
 40
0.0
176
     0
 90
        0
176
     0
290
     0
176
     0
290
     1
176
     0
290
     1
176
     0
290
     0
176
     0
290
     0
176
     0
290
     0
176
     0
290
     0
176
     0
290
     0
176
     0
290
     0
176
     0
 90
       50
176
     0
 40
0.0
176
     0
 40
1.0
176
     0
 90
        0
176
     0
 62
    18
420
        0
176
     0
 90
       50
176
     0
 90
        3
176
     0
 62
     5
420
      255
176
     0
290
     0
176
     0
 90
       50
176
     0
 90
       50
176
     0
 90
       50
176
     0
290
     0
176
     0
 90
       50
176
     0
 62
   256
176
     0
 40
1.0
176
     0
 90
        2
176
     0
  1
strokes_ogs.tif
176
     0
290
     0
176
     0
 40
1.0
176
     0
 40
1.0
176
     0
  0
VISUALSTYLE
  5
39
102
{ACAD_REACTORS
330
2A
102
}
330
2A
100
AcDbVisualStyle
  2
Facepattern
 70
    15
177
     3
291
     1
 70
    58
 90
        2
176
     1
 90
        2
176
     1
 90
        0
176
     1
 90
        0
176
     1
 40
0.6
176
     1
 40
30.0
176
     1
 62
     7
420
 16777215
176
     1
 90
        1
176
     1
 90
        4
176
     1
 62
     7
176
     1
 62
   257
176
     1
 90
        1
176
     1
 90
        1
176
     1
 40
1.0
176
     1
 90
        8
176
     1
 62
     7
176
     1
 40
1.0
176
     1
 90
        1
176
     1
 90
        6
176
     1
 90
        2
176
     1
 62
     7
176
     1
 90
        5
176
     1
 90
        0
176
     1
 90
        0
176
     1
290
     0
176
     1
 90
        1
176
     1
 40
0.0
176
     1
 90
        0
176
     1
290
     0
176
     1
290
     1
176
     1
290
     1
176
     1
290
     0
176
     1
290
     0
176
     1
290
     0
176
     1
290
     0
176
     1
290
     0
176
     1
290
     0
176
     1
 90
       50
176
     1
 40
0.0
176
     1
 40
1.0
176
     1
 90
        0
176
     1
 62
    18
420
        0
176
     1
 90
       50
176
     1
 90
        3
176
     1
 62
     5
420
      255
176
     1
290
     0
176
     1
 90
       50
176
     1
 90
       50
176
     1
 90
       50
176
     1
290
     0
176
     1
 90
       50
176
     1
 62
   256
176
     0
 40
1.0
176
     0
 90
        2
176
     1
  1
strokes_ogs.tif
176
     1
290
     0
176
     1
 40
1.0
176
     1
 40
1.0
176
     1
  0
VISUALSTYLE
  5
2B
102
{ACAD_REACTORS
330
2A
102
}
330
2A
100
AcDbVisualStyle
  2
Flat
 70
     0
177
     3
291
     1
 70
    58
 90
        2
176
     1
 90
        1
176
     1
 90
        1
176
     1
 90
        2
176
     1
 40
0.6
176
     1
 40
30.0
176
     1
 62
     7
420
 16777215
176
     1
 90
        0
176
     1
 90
        0
176
     1
 62
     7
176
     1
 62
   257
176
     1
 90
        1
176
     1
 90
        1
176
     1
 40
1.0
176
     1
 90
        8
176
     1
 62
     7
176
     1
 40
1.0
176
     1
 90
        1
176
     1
 90
        6
176
     1
 90
        2
176
     1
 62
     7
176
     1
 90
        5
176
     1
 90
        0
176
     1
 90
        0
176
     1
290
     0
176
     1
 90
       13
176
     1
 40
0.0
176
     1
 90
        0
176
     1
290
     0
176
     1
290
     1
176
     1
290
     1
176
     1
290
     0
176
     1
290
     0
176
     1
290
     0
176
     1
290
     0
176
     1
290
     0
176
     1
290
     0
176
     1
 90
       50
176
     1
 40
0.0
176
     1
 40
1.0
176
     1
 90
        0
176
     1
 62
    18
420
        0
176
     1
 90
       50
176
     1
 90
        3
176
     1
 62
     5
420
      255
176
     1
290
     0
176
     1
 90
       50
176
     1
 90
       50
176
     1
 90
       50
176
     1
290
     0
176
     1
 90
       50
176
     1
 62
   256
176
     0
 40
1.0
176
     0
 90
        2
176
     1
  1
strokes_ogs.tif
176
     1
290
     0
176
     1
 40
1.0
176
     1
 40
1.0
176
     1
  0
VISUALSTYLE
  5
2C
102
{ACAD_REACTORS
330
2A
102
}
330
2A
100
AcDbVisualStyle
  2
FlatWithEdges
 70
     1
177
     3
291
     1
 70
    58
 90
        2
176
     1
 90
        1
176
     1
 90
        1
176
     1
 90
        2
176
     1
 40
0.6
176
     1
 40
30.0
176
     1
 62
     7
420
 16777215
176
     1
 90
        1
176
     1
 90
        0
176
     1
 62
     7
176
     1
 62
   257
176
     1
 90
        1
176
     1
 90
        1
176
     1
 40
1.0
176
     1
 90
        0
176
     1
 62
   257
176
     1
 40
1.0
176
     1
 90
        1
176
     1
 90
        6
176
     1
 90
        2
176
     1
 62
     7
176
     1
 90
        5
176
     1
 90
        0
176
     1
 90
        0
176
     1
290
     0
176
     1
 90
       13
176
     1
 40
0.0
176
     1
 90
        0
176
     1
290
     0
176
     1
290
     1
176
     1
290
     1
176
     1
290
     0
176
     1
290
     0
176
     1
290
     0
176
     1
290
     0
176
     1
290
     0
176
     1
290
     0
176
     1
 90
       50
176
     1
 40
0.0
176
     1
 40
1.0
176
     1
 90
        0
176
     1
 62
    18
420
        0
176
     1
 90
       50
176
     1
 90
        3
176
     1
 62
     5
420
      255
176
     1
290
     0
176
     1
 90
       50
176
     1
 90
       50
176
     1
 90
       50
176
     1
290
     0
176
     1
 90
       50
176
     1
 62
   256
176
     0
 40
1.0
176
     0
 90
        2
176
     1
  1
strokes_ogs.tif
176
     1
290
     0
176
     1
 40
1.0
176
     1
 40
1.0
176
     1
  0
VISUALSTYLE
  5
2D
102
{ACAD_REACTORS
330
2A
102
}
330
2A
100
AcDbVisualStyle
  2
Gouraud
 70
     2
177
     3
291
     1
 70
    58
 90
        2
176
     1
 90
        2
176
     1
 90
        1
176
     1
 90
        2
176
     1
 40
0.6
176
     1
 40
30.0
176
     1
 62
     7
420
 16777215
176
     1
 90
        0
176
     1
 90
        0
176
     1
 62
     7
176
     1
 62
   257
176
     1
 90
        1
176
     1
 90
        1
176
     1
 40
1.0
176
     1
 90
        0
176
     1
 62
     7
176
     1
 40
1.0
176
     1
 90
        1
176
     1
 90
        6
176
     1
 90
        2
176
     1
 62
     7
176
     1
 90
        5
176
     1
 90
        0
176
     1
 90
        0
176
     1
290
     0
176
     1
 90
       13
176
     1
 40
0.0
176
     1
 90
        0
176
     1
290
     0
176
     1
290
     1
176
     1
290
     1
176
     1
290
     0
176
     1
290
     0
176
     1
290
     0
176
     1
290
     0
176
     1
290
     0
176
     1
290
     0
176
     1
 90
       50
176
     1
 40
0.0
176
     1
 40
1.0
176
     1
 90
        0
176
     1
 62
    18
420
        0
176
     1
 90
       50
176
     1
 90
        3
176
     1
 62
     5
420
      255
176
     1
290
     0
176
     1
 90
       50
176
     1
 90
       50
176
     1
 90
       50
176
     1
290
     0
176
     1
 90
       50
176
     1
 62
   256
176
     0
 40
1.0
176
     0
 90
        2
176
     1
  1
strokes_ogs.tif
176
     1
290
     0
176
     1
 40
1.0
176
     1
 40
1.0
176
     1
  0
VISUALSTYLE
  5
2E
102
{ACAD_REACTORS
330
2A
102
}
330
2A
100
AcDbVisualStyle
  2
GouraudWithEdges
 70
     3
177
     3
291
     1
 70
    58
 90
        2
176
     1
 90
        2
176
     1
 90
        1
176
     1
 90
        2
176
     1
 40
0.6
176
     1
 40
30.0
176
     1
 62
     7
420
 16777215
176
     1
 90
        1
176
     1
 90
        0
176
     1
 62
     7
176
     1
 62
   257
176
     1
 90
        1
176
     1
 90
        1
176
     1
 40
1.0
176
     1
 90
        0
176
     1
 62
   257
176
     1
 40
1.0
176
     1
 90
        1
176
     1
 90
        6
176
     1
 90
        2
176
     1
 62
     7
176
     1
 90
        5
176
     1
 90
        0
176
     1
 90
        0
176
     1
290
     0
176
     1
 90
       13
176
     1
 40
0.0
176
     1
 90
        0
176
     1
290
     0
176
     1
290
     1
176
     1
290
     1
176
     1
290
     0
176
     1
290
     0
176
     1
290
     0
176
     1
290
     0
176
     1
290
     0
176
     1
290
     0
176
     1
 90
       50
176
     1
 40
0.0
176
     1
 40
1.0
176
     1
 90
        0
176
     1
 62
    18
420
        0
176
     1
 90
       50
176
     1
 90
        3
176
     1
 62
     5
420
      255
176
     1
290
     0
176
     1
 90
       50
176
     1
 90
       50
176
     1
 90
       50
176
     1
290
     0
176
     1
 90
       50
176
     1
 62
   256
176
     0
 40
1.0
176
     0
 90
        2
176
     1
  1
strokes_ogs.tif
176
     1
290
     0
176
     1
 40
1.0
176
     1
 40
1.0
176
     1
  0
VISUALSTYLE
  5
31
102
{ACAD_REACTORS
330
2A
102
}
330
2A
100
AcDbVisualStyle
  2
Hidden
 70
     6
177
     3
291
     0
 70
    58
 90
        1
176
     1
 90
        2
176
     1
 90
        2
176
     1
 90
        0
176
     1
 40
0.6
176
     1
 40
30.0
176
     1
 62
     7
420
 16777215
176
     1
 90
        2
176
     1
 90
        2
176
     1
 62
     7
176
     1
 62
   257
176
     1
 90
        2
176
     1
 90
        1
176
     1
 40
40.0
176
     1
 90
        0
176
     1
 62
   257
176
     1
 40
1.0
176
     1
 90
        1
176
     1
 90
        6
176
     1
 90
        2
176
     1
 62
     7
176
     1
 90
        3
176
     1
 90
        0
176
     1
 90
        0
176
     1
290
     0
176
     1
 90
        1
176
     1
 40
0.0
176
     1
 90
        0
176
     1
290
     0
176
     1
290
     1
176
     1
290
     1
176
     1
290
     0
176
     1
290
     0
176
     1
290
     0
176
     1
290
     0
176
     1
290
     0
176
     1
290
     0
176
     1
 90
       50
176
     1
 40
0.0
176
     1
 40
1.0
176
     1
 90
        0
176
     1
 62
    18
420
        0
176
     1
 90
       50
176
     1
 90
        3
176
     1
 62
     5
420
      255
176
     1
290
     0
176
     1
 90
       50
176
     1
 90
       50
176
     1
 90
       50
176
     1
290
     0
176
     1
 90
       50
176
     1
 62
   256
176
     0
 40
1.0
176
     0
 90
        2
176
     1
  1
strokes_ogs.tif
176
     1
290
     0
176
     1
 40
1.0
176
     1
 40
1.0
176
     1
  0
VISUALSTYLE
  5
3B
102
{ACAD_REACTORS
330
2A
102
}
330
2A
100
AcDbVisualStyle
  2
JitterOff
 70
    20
177
     3
291
     1
 70
    58
 90
        2
176
     0
 90
        2
176
     0
 90
        0
176
     0
 90
        0
176
     0
 40
0.6
176
     0
 40
30.0
176
     0
 62
     7
420
 16777215
176
     0
 90
        1
176
     0
 90
        4
176
     0
 62
     7
176
     0
 62
   257
176
     0
 90
        1
176
     0
 90
        1
176
     0
 40
1.0
176
     0
 90
       10
176
     2
 62
     7
176
     0
 40
1.0
176
     0
 90
        1
176
     0
 90
        6
176
     0
 90
        2
176
     0
 62
     7
176
     0
 90
        5
176
     0
 90
        0
176
     0
 90
        0
176
     0
290
     0
176
     0
 90
        1
176
     0
 40
0.0
176
     0
 90
        0
176
     0
290
     0
176
     0
290
     1
176
     0
290
     1
176
     0
290
     0
176
     0
290
     0
176
     0
290
     0
176
     0
290
     0
176
     0
290
     0
176
     0
290
     0
176
     0
 90
       50
176
     0
 40
0.0
176
     0
 40
1.0
176
     0
 90
        0
176
     0
 62
    18
420
        0
176
     0
 90
       50
176
     0
 90
        3
176
     0
 62
     5
420
      255
176
     0
290
     0
176
     0
 90
       50
176
     0
 90
       50
176
     0
 90
       50
176
     0
290
     0
176
     0
 90
       50
176
     0
 62
   256
176
     0
 40
1.0
176
     0
 90
        2
176
     0
  1
strokes_ogs.tif
176
     0
290
     0
176
     0
 40
1.0
176
     0
 40
1.0
176
     0
  0
VISUALSTYLE
  5
38
102
{ACAD_REACTORS
330
2A
102
}
330
2A
100
AcDbVisualStyle
  2
Linepattern
 70
    14
177
     3
291
     1
 70
    58
 90
        2
176
     1
 90
        2
176
     1
 90
        0
176
     1
 90
        0
176
     1
 40
0.6
176
     1
 40
30.0
176
     1
 62
     7
420
 16777215
176
     1
 90
        1
176
     1
 90
        4
176
     1
 62
     7
176
     1
 62
   257
176
     1
 90
        7
176
     1
 90
        7
176
     1
 40
1.0
176
     1
 90
        8
176
     1
 62
     7
176
     1
 40
1.0
176
     1
 90
        1
176
     1
 90
        6
176
     1
 90
        2
176
     1
 62
     7
176
     1
 90
        5
176
     1
 90
        0
176
     1
 90
        0
176
     1
290
     0
176
     1
 90
        1
176
     1
 40
0.0
176
     1
 90
        0
176
     1
290
     0
176
     1
290
     1
176
     1
290
     1
176
     1
290
     0
176
     1
290
     0
176
     1
290
     0
176
     1
290
     0
176
     1
290
     0
176
     1
290
     0
176
     1
 90
       50
176
     1
 40
0.0
176
     1
 40
1.0
176
     1
 90
        0
176
     1
 62
    18
420
        0
176
     1
 90
       50
176
     1
 90
        3
176
     1
 62
     5
420
      255
176
     1
290
     0
176
     1
 90
       50
176
     1
 90
       50
176
     1
 90
       50
176
     1
290
     0
176
     1
 90
       50
176
     1
 62
   256
176
     0
 40
1.0
176
     0
 90
        2
176
     1
  1
strokes_ogs.tif
176
     1
290
     0
176
     1
 40
1.0
176
     1
 40
1.0
176
     1
  0
VISUALSTYLE
  5
3C
102
{ACAD_REACTORS
330
2A
102
}
330
2A
100
AcDbVisualStyle
  2
OverhangOff
 70
    21
177
     3
291
     1
 70
    58
 90
        2
176
     0
 90
        2
176
     0
 90
        0
176
     0
 90
        0
176
     0
 40
0.6
176
     0
 40
30.0
176
     0
 62
     7
420
 16777215
176
     0
 90
        1
176
     0
 90
        4
176
     0
 62
     7
176
     0
 62
   257
176
     0
 90
        1
176
     0
 90
        1
176
     0
 40
1.0
176
     0
 90
        9
176
     2
 62
     7
176
     0
 40
1.0
176
     0
 90
        1
176
     0
 90
        6
176
     0
 90
        2
176
     0
 62
     7
176
     0
 90
        5
176
     0
 90
        0
176
     0
 90
        0
176
     0
290
     0
176
     0
 90
        1
176
     0
 40
0.0
176
     0
 90
        0
176
     0
290
     0
176
     0
290
     1
176
     0
290
     1
176
     0
290
     0
176
     0
290
     0
176
     0
290
     0
176
     0
290
     0
176
     0
290
     0
176
     0
290
     0
176
     0
 90
       50
176
     0
 40
0.0
176
     0
 40
1.0
176
     0
 90
        0
176
     0
 62
    18
420
        0
176
     0
 90
       50
176
     0
 90
        3
176
     0
 62
     5
420
      255
176
     0
290
     0
176
     0
 90
       50
176
     0
 90
       50
176
     0
 90
       50
176
     0
290
     0
176
     0
 90
       50
176
     0
 62
   256
176
     0
 40
1.0
176
     0
 90
        2
176
     0
  1
strokes_ogs.tif
176
     0
290
     0
176
     0
 40
1.0
176
     0
 40
1.0
176
     0
  0
VISUALSTYLE
  5
33
102
{ACAD_REACTORS
330
2A
102
}
330
2A
100
AcDbVisualStyle
  2
Realistic
 70
     8
177
     3
291
     0
 70
    58
 90
        2
176
     1
 90
        3
176
     1
 90
        0
176
     1
 90
        2
176
     1
 40
0.6
176
     1
 40
30.0
176
     1
 62
     7
420
 16777215
176
     1
 90
        0
176
     1
 90
        0
176
     1
 62
     7
176
     1
 62
   257
176
     1
 90
        1
176
     1
 90
        1
176
     1
 40
1.0
176
     1
 90
        8
176
     1
 62
   257
176
     1
 40
1.0
176
     1
 90
        1
176
     1
 90
        6
176
     1
 90
        2
176
     1
 62
     7
176
     1
 90
        3
176
     1
 90
        0
176
     1
 90
        0
176
     1
290
     0
176
     1
 90
       13
176
     1
 40
0.0
176
     1
 90
        0
176
     1
290
     0
176
     1
290
     1
176
     1
290
     1
176
     1
290
     0
176
     1
290
     0
176
     1
290
     0
176
     1
290
     0
176
     1
290
     0
176
     1
290
     0
176
     1
 90
       50
176
     1
 40
0.0
176
     1
 40
1.0
176
     1
 90
        0
176
     1
 62
    18
420
        0
176
     1
 90
       50
176
     1
 90
        3
176
     1
 62
     5
420
      255
176
     1
290
     0
176
     1
 90
       50
176
     1
 90
       50
176
     1
 90
       50
176
     1
290
     0
176
     1
 90
       50
176
     1
 62
   256
176
     0
 40
1.0
176
     0
 90
        2
176
     1
  1
strokes_ogs.tif
176
     1
290
     0
176
     1
 40
1.0
176
     1
 40
1.0
176
     1
  0
VISUALSTYLE
  5
42
102
{ACAD_REACTORS
330
2A
102
}
330
2A
100
AcDbVisualStyle
  2
Shaded
 70
    27
177
     3
291
     0
 70
    58
 90
        2
176
     1
 90
        2
176
     1
 90
        1
176
     1
 90
        2
176
     1
 40
0.6
176
     1
 40
30.0
176
     1
 62
     7
420
 16777215
176
     1
 90
        0
176
     1
 90
        4
176
     1
 62
     7
176
     1
 62
   257
176
     1
 90
        1
176
     1
 90
        1
176
     1
 40
1.0
176
     1
 90
        8
176
     1
 62
   257
176
     1
 40
1.0
176
     1
 90
        1
176
     1
 90
        6
176
     1
 90
        2
176
     1
 62
     8
420
  7895160
176
     1
 90
        3
176
     1
 90
        0
176
     1
 90
        0
176
     1
290
     0
176
     1
 90
        5
176
     1
 40
0.0
176
     1
 90
        0
176
     1
290
     0
176
     1
290
     1
176
     1
290
     1
176
     1
290
     0
176
     1
290
     0
176
     1
290
     0
176
     1
290
     0
176
     1
290
     0
176
     1
290
     0
176
     1
 90
       50
176
     1
 40
0.0
176
     1
 40
1.0
176
     1
 90
        0
176
     1
 62
    18
420
        0
176
     1
 90
       50
176
     1
 90
        3
176
     1
 62
     5
420
      255
176
     1
290
     0
176
     1
 90
       50
176
     1
 90
       50
176
     1
 90
       50
176
     1
290
     0
176
     1
 90
       50
176
     1
 62
   256
176
     0
 40
1.0
176
     0
 90
        2
176
     1
  1
strokes_ogs.tif
176
     1
290
     0
176
     1
 40
1.0
176
     1
 40
1.0
176
     1
  0
VISUALSTYLE
  5
41
102
{ACAD_REACTORS
330
2A
102
}
330
2A
100
AcDbVisualStyle
  2
Shaded with edges
 70
    26
177
     3
291
     0
 70
    58
 90
        2
176
     1
 90
        2
176
     1
 90
        1
176
     1
 90
        2
176
     1
 40
0.6
176
     1
 40
30.0
176
     1
 62
     7
420
 16777215
176
     1
 90
        1
176
     1
 90
       10
176
     1
 62
     7
176
     1
 62
   257
176
     1
 90
        2
176
     1
 90
        1
176
     1
 40
1.0
176
     1
 90
        8
176
     1
 62
   257
176
     1
 40
1.0
176
     1
 90
        1
176
     1
 90
        6
176
     1
 90
        2
176
     1
 62
     7
176
     1
 90
        3
176
     1
 90
        0
176
     1
 90
        0
176
     1
290
     0
176
     1
 90
        5
176
     1
 40
0.0
176
     1
 90
        0
176
     1
290
     0
176
     1
290
     1
176
     1
290
     1
176
     1
290
     0
176
     1
290
     0
176
     1
290
     0
176
     1
290
     0
176
     1
290
     0
176
     1
290
     0
176
     1
 90
       50
176
     1
 40
0.0
176
     1
 40
1.0
176
     1
 90
        0
176
     1
 62
    18
420
        0
176
     1
 90
       50
176
     1
 90
        3
176
     1
 62
     5
420
      255
176
     1
290
     0
176
     1
 90
       50
176
     1
 90
       50
176
     1
 90
       50
176
     1
290
     0
176
     1
 90
       50
176
     1
 62
   256
176
     0
 40
1.0
176
     0
 90
        2
176
     1
  1
strokes_ogs.tif
176
     1
290
     0
176
     1
 40
1.0
176
     1
 40
1.0
176
     1
  0
VISUALSTYLE
  5
3E
102
{ACAD_REACTORS
330
2A
102
}
330
2A
100
AcDbVisualStyle
  2
Shades of Gray
 70
    23
177
     3
291
     0
 70
    58
 90
        2
176
     1
 90
        2
176
     1
 90
        3
176
     1
 90
        0
176
     1
 40
0.6
176
     1
 40
30.0
176
     1
 62
     7
420
 16777215
176
     1
 90
        2
176
     1
 90
        2
176
     1
 62
     7
176
     1
 62
     7
176
     1
 90
        1
176
     1
 90
        1
176
     1
 40
40.0
176
     1
 90
        8
176
     1
 62
     7
176
     1
 40
1.0
176
     1
 90
        1
176
     1
 90
        6
176
     1
 90
        2
176
     1
 62
     7
176
     1
 90
        3
176
     1
 90
        0
176
     1
 90
        0
176
     1
290
     0
176
     1
 90
        1
176
     1
 40
0.0
176
     1
 90
        0
176
     1
290
     0
176
     1
290
     1
176
     1
290
     1
176
     1
290
     0
176
     1
290
     0
176
     1
290
     0
176
     1
290
     0
176
     1
290
     0
176
     1
290
     0
176
     1
 90
       50
176
     1
 40
0.0
176
     1
 40
1.0
176
     1
 90
        0
176
     1
 62
    18
420
        0
176
     1
 90
       50
176
     1
 90
        3
176
     1
 62
     5
420
      255
176
     1
290
     0
176
     1
 90
       50
176
     1
 90
       50
176
     1
 90
       50
176
     1
290
     0
176
     1
 90
       50
176
     1
 62
   256
176
     0
 40
1.0
176
     0
 90
        2
176
     1
  1
strokes_ogs.tif
176
     1
290
     0
176
     1
 40
1.0
176
     1
 40
1.0
176
     1
  0
VISUALSTYLE
  5
3F
102
{ACAD_REACTORS
330
2A
102
}
330
2A
100
AcDbVisualStyle
  2
Sketchy
 70
    24
177
     3
291
     0
 70
    58
 90
        1
176
     1
 90
        2
176
     1
 90
        2
176
     1
 90
        0
176
     1
 40
0.6
176
     1
 40
30.0
176
     1
 62
     7
420
 16777215
176
     1
 90
        2
176
     1
 90
        2
176
     1
 62
     7
176
     1
 62
     7
176
     1
 90
        1
176
     1
 90
        1
176
     1
 40
40.0
176
     1
 90
       11
176
     1
 62
     7
176
     1
 40
1.0
176
     1
 90
        1
176
     1
 90
        6
176
     1
 90
        2
176
     1
 62
     7
176
     1
 90
        6
176
     1
 90
        0
176
     1
 90
        0
176
     1
290
     0
176
     1
 90
        1
176
     1
 40
0.0
176
     1
 90
        0
176
     1
290
     0
176
     1
290
     1
176
     1
290
     1
176
     1
290
     0
176
     1
290
     0
176
     1
290
     0
176
     1
290
     0
176
     1
290
     0
176
     1
290
     0
176
     1
 90
       50
176
     1
 40
0.0
176
     1
 40
1.0
176
     1
 90
        0
176
     1
 62
    18
420
        0
176
     1
 90
       50
176
     1
 90
        3
176
     1
 62
     5
420
      255
176
     1
290
     0
176
     1
 90
       50
176
     1
 90
       50
176
     1
 90
       50
176
     1
290
     0
176
     1
 90
       50
176
     1
 62
   256
176
     0
 40
1.0
176
     0
 90
        2
176
     1
  1
strokes_ogs.tif
176
     1
290
     0
176
     1
 40
1.0
176
     1
 40
1.0
176
     1
  0
VISUALSTYLE
  5
37
102
{ACAD_REACTORS
330
2A
102
}
330
2A
100
AcDbVisualStyle
  2
Thicken
 70
    13
177
     3
291
     1
 70
    58
 90
        2
176
     1
 90
        2
176
     1
 90
        0
176
     1
 90
        0
176
     1
 40
0.6
176
     1
 40
30.0
176
     1
 62
     7
420
 16777215
176
     1
 90
        1
176
     1
 90
        4
176
     1
 62
     7
176
     1
 62
   257
176
     1
 90
        1
176
     1
 90
        1
176
     1
 40
1.0
176
     1
 90
       12
176
     1
 62
     7
176
     1
 40
1.0
176
     1
 90
        1
176
     1
 90
        6
176
     1
 90
        2
176
     1
 62
     7
176
     1
 90
        5
176
     1
 90
        0
176
     1
 90
        0
176
     1
290
     0
176
     1
 90
        1
176
     1
 40
0.0
176
     1
 90
        0
176
     1
290
     0
176
     1
290
     1
176
     1
290
     1
176
     1
290
     0
176
     1
290
     0
176
     1
290
     0
176
     1
290
     0
176
     1
290
     0
176
     1
290
     0
176
     1
 90
       50
176
     1
 40
0.0
176
     1
 40
1.0
176
     1
 90
        0
176
     1
 62
    18
420
        0
176
     1
 90
       50
176
     1
 90
        3
176
     1
 62
     5
420
      255
176
     1
290
     0
176
     1
 90
       50
176
     1
 90
       50
176
     1
 90
       50
176
     1
290
     0
176
     1
 90
       50
176
     1
 62
   256
176
     0
 40
1.0
176
     0
 90
        2
176
     1
  1
strokes_ogs.tif
176
     1
290
     0
176
     1
 40
1.0
176
     1
 40
1.0
176
     1
  0
VISUALSTYLE
  5
30
102
{ACAD_REACTORS
330
2A
102
}
330
2A
100
AcDbVisualStyle
  2
Wireframe
 70
     5
177
     3
291
     0
 70
    58
 90
        0
176
     1
 90
        2
176
     1
 90
        0
176
     1
 90
        0
176
     1
 40
0.6
176
     1
 40
30.0
176
     1
 62
     7
420
 16777215
176
     1
 90
        1
176
     1
 90
        4
176
     1
 62
     7
176
     1
 62
   257
176
     1
 90
        1
176
     1
 90
        1
176
     1
 40
1.0
176
     1
 90
        0
176
     1
 62
   257
176
     1
 40
1.0
176
     1
 90
        1
176
     1
 90
        6
176
     1
 90
        2
176
     1
 62
     7
176
     1
 90
        3
176
     1
 90
        0
176
     1
 90
        0
176
     1
290
     0
176
     1
 90
        1
176
     1
 40
0.0
176
     1
 90
        0
176
     1
290
     0
176
     1
290
     1
176
     1
290
     1
176
     1
290
     0
176
     1
290
     0
176
     1
290
     0
176
     1
290
     0
176
     1
290
     0
176
     1
290
     0
176
     1
 90
       50
176
     1
 40
0.0
176
     1
 40
1.0
176
     1
 90
        0
176
     1
 62
    18
420
        0
176
     1
 90
       50
176
     1
 90
        3
176
     1
 62
     5
420
      255
176
     1
290
     0
176
     1
 90
       50
176
     1
 90
       50
176
     1
 90
       50
176
     1
290
     0
176
     1
 90
       50
176
     1
 62
   256
176
     0
 40
1.0
176
     0
 90
        2
176
     1
  1
strokes_ogs.tif
176
     1
290
     0
176
     1
 40
1.0
176
     1
 40
1.0
176
     1
  0
VISUALSTYLE
  5
40
102
{ACAD_REACTORS
330
2A
102
}
330
2A
100
AcDbVisualStyle
  2
X-Ray
 70
    25
177
     3
291
     0
 70
    58
 90
        2
176
     1
 90
        2
176
     1
 90
        1
176
     1
 90
        1
176
     1
 40
0.5
176
     1
 40
30.0
176
     1
 62
     7
420
 16777215
176
     1
 90
        1
176
     1
 90
        0
176
     1
 62
     7
176
     1
 62
   257
176
     1
 90
        1
176
     1
 90
        1
176
     1
 40
1.0
176
     1
 90
        8
176
     1
 62
     7
176
     1
 40
1.0
176
     1
 90
        1
176
     1
 90
        6
176
     1
 90
        2
176
     1
 62
     7
176
     1
 90
        3
176
     1
 90
        0
176
     1
 90
        0
176
     1
290
     0
176
     1
 90
       13
176
     1
 40
0.0
176
     1
 90
        0
176
     1
290
     0
176
     1
290
     1
176
     1
290
     1
176
     1
290
     0
176
     1
290
     0
176
     1
290
     0
176
     1
290
     0
176
     1
290
     0
176
     1
290
     0
176
     1
 90
       50
176
     1
 40
0.0
176
     1
 40
1.0
176
     1
 90
        0
176
     1
 62
    18
420
        0
176
     1
 90
       50
176
     1
 90
        3
176
     1
 62
     5
420
      255
176
     1
290
     0
176
     1
 90
       50
176
     1
 90
       50
176
     1
 90
       50
176
     1
290
     0
176
     1
 90
       50
176
     1
 62
   256
176
     0
 40
1.0
176
     0
 90
        2
176
     1
  1
strokes_ogs.tif
176
     1
290
     0
176
     1
 40
1.0
176
     1
 40
1.0
176
     1
  0
DICTIONARYVAR
  5
1DA
102
{ACAD_REACTORS
330
1D9
102
}
330
1D9
100
DictionaryVariables
280
     0
  1
1:1
  0
DICTIONARYVAR
  5
1DF
102
{ACAD_REACTORS
330
1D9
102
}
330
1D9
100
DictionaryVariables
280
     0
  1
Standard
  0
DICTIONARYVAR
  5
1DE
102
{ACAD_REACTORS
330
1D9
102
}
330
1D9
100
DictionaryVariables
280
     0
  1
Standard
  0
DICTIONARY
  5
1DB
330
5A
100
AcDbDictionary
280
     1
281
     1
  3
ACAD_ROUNDTRIP_2008_TABLESTYLE_CELLSTYLEMAP
360
1DC
  0
CELLSTYLEMAP
  5
1DC
102
{ACAD_REACTORS
330
1DB
102
}
330
1DB
100
AcDbCellStyleMap
 90
        3
300
CELLSTYLE
  1
TABLEFORMAT_BEGIN
 90
        5
170
     1
 91
        0
 92
    32768
 62
   257
 93
        1
300
CONTENTFORMAT
  1
CONTENTFORMAT_BEGIN
 90
        0
 91
        0
 92
        4
 93
        0
300

 40
0.0
140
1.0
 94
        5
 62
     0
340
11
144
0.25
309
CONTENTFORMAT_END
171
     1
301
MARGIN
  1
CELLMARGIN_BEGIN
 40
0.06
 40
0.06
 40
0.06
 40
0.06
 40
0.06
 40
0.06
309
CELLMARGIN_END
 94
        6
 95
        1
302
GRIDFORMAT
  1
GRIDFORMAT_BEGIN
 90
        0
 91
        1
 62
     0
 92
       -2
340
14
 93
        0
 40
0.045
309
GRIDFORMAT_END
 95
        2
302
GRIDFORMAT
  1
GRIDFORMAT_BEGIN
 90
        0
 91
        1
 62
     0
 92
       -2
340
14
 93
        0
 40
0.045
309
GRIDFORMAT_END
 95
        4
302
GRIDFORMAT
  1
GRIDFORMAT_BEGIN
 90
        0
 91
        1
 62
     0
 92
       -2
340
14
 93
        0
 40
0.045
309
GRIDFORMAT_END
 95
        8
302
GRIDFORMAT
  1
GRIDFORMAT_BEGIN
 90
        0
 91
        1
 62
     0
 92
       -2
340
14
 93
        0
 40
0.045
309
GRIDFORMAT_END
 95
       16
302
GRIDFORMAT
  1
GRIDFORMAT_BEGIN
 90
        0
 91
        1
 62
     0
 92
       -2
340
14
 93
        0
 40
0.045
309
GRIDFORMAT_END
 95
       32
302
GRIDFORMAT
  1
GRIDFORMAT_BEGIN
 90
        0
 91
        1
 62
     0
 92
       -2
340
14
 93
        0
 40
0.045
309
GRIDFORMAT_END
309
TABLEFORMAT_END
  1
CELLSTYLE_BEGIN
 90
        1
 91
        1
300
_TITLE
309
CELLSTYLE_END
300
CELLSTYLE
  1
TABLEFORMAT_BEGIN
 90
        5
170
     1
 91
        0
 92
        0
 62
   257
 93
        1
300
CONTENTFORMAT
  1
CONTENTFORMAT_BEGIN
 90
        0
 91
        0
 92
        4
 93
        0
300

 40
0.0
140
1.0
 94
        5
 62
     0
340
11
144
0.18
309
CONTENTFORMAT_END
171
     1
301
MARGIN
  1
CELLMARGIN_BEGIN
 40
0.06
 40
0.06
 40
0.06
 40
0.06
 40
0.06
 40
0.06
309
CELLMARGIN_END
 94
        6
 95
        1
302
GRIDFORMAT
  1
GRIDFORMAT_BEGIN
 90
        0
 91
        1
 62
     0
 92
       -2
340
14
 93
        0
 40
0.045
309
GRIDFORMAT_END
 95
        2
302
GRIDFORMAT
  1
GRIDFORMAT_BEGIN
 90
        0
 91
        1
 62
     0
 92
       -2
340
14
 93
        0
 40
0.045
309
GRIDFORMAT_END
 95
        4
302
GRIDFORMAT
  1
GRIDFORMAT_BEGIN
 90
        0
 91
        1
 62
     0
 92
       -2
340
14
 93
        0
 40
0.045
309
GRIDFORMAT_END
 95
        8
302
GRIDFORMAT
  1
GRIDFORMAT_BEGIN
 90
        0
 91
        1
 62
     0
 92
       -2
340
14
 93
        0
 40
0.045
309
GRIDFORMAT_END
 95
       16
302
GRIDFORMAT
  1
GRIDFORMAT_BEGIN
 90
        0
 91
        1
 62
     0
 92
       -2
340
14
 93
        0
 40
0.045
309
GRIDFORMAT_END
 95
       32
302
GRIDFORMAT
  1
GRIDFORMAT_BEGIN
 90
        0
 91
        1
 62
     0
 92
       -2
340
14
 93
        0
 40
0.045
309
GRIDFORMAT_END
309
TABLEFORMAT_END
  1
CELLSTYLE_BEGIN
 90
        2
 91
        1
300
_HEADER
309
CELLSTYLE_END
300
CELLSTYLE
  1
TABLEFORMAT_BEGIN
 90
        5
170
     1
 91
        0
 92
        0
 62
   257
 93
        1
300
CONTENTFORMAT
  1
CONTENTFORMAT_BEGIN
 90
        0
 91
        0
 92
        4
 93
        0
300

 40
0.0
140
1.0
 94
        2
 62
     0
340
11
144
0.18
309
CONTENTFORMAT_END
171
     1
301
MARGIN
  1
CELLMARGIN_BEGIN
 40
0.06
 40
0.06
 40
0.06
 40
0.06
 40
0.06
 40
0.06
309
CELLMARGIN_END
 94
        6
 95
        1
302
GRIDFORMAT
  1
GRIDFORMAT_BEGIN
 90
        0
 91
        1
 62
     0
 92
       -2
340
14
 93
        0
 40
0.045
309
GRIDFORMAT_END
 95
        2
302
GRIDFORMAT
  1
GRIDFORMAT_BEGIN
 90
        0
 91
        1
 62
     0
 92
       -2
340
14
 93
        0
 40
0.045
309
GRIDFORMAT_END
 95
        4
302
GRIDFORMAT
  1
GRIDFORMAT_BEGIN
 90
        0
 91
        1
 62
     0
 92
       -2
340
14
 93
        0
 40
0.045
309
GRIDFORMAT_END
 95
        8
302
GRIDFORMAT
  1
GRIDFORMAT_BEGIN
 90
        0
 91
        1
 62
     0
 92
       -2
340
14
 93
        0
 40
0.045
309
GRIDFORMAT_END
 95
       16
302
GRIDFORMAT
  1
GRIDFORMAT_BEGIN
 90
        0
 91
        1
 62
     0
 92
       -2
340
14
 93
        0
 40
0.045
309
GRIDFORMAT_END
 95
       32
302
GRIDFORMAT
  1
GRIDFORMAT_BEGIN
 90
        0
 91
        1
 62
     0
 92
       -2
340
14
 93
        0
 40
0.045
309
GRIDFORMAT_END
309
TABLEFORMAT_END
  1
CELLSTYLE_BEGIN
 90
        3
 91
        2
300
_DATA
309
CELLSTYLE_END
  0
ENDSEC
  0
EOF
